<?xml version='1.0' encoding='utf-8'?>
<svg xmlns:xlink="http://www.w3.org/1999/xlink" class="pygal-chart" id="chart-37f30abd-9ee6-4bc8-86a3-29b7781a5824" viewBox="0 0 800 600" xmlns="http://www.w3.org/2000/svg"><!--Generated with pygal 2.3.0 (etree) ©Kozea 2012-2016 on 2016-12-03--><!--http://pygal.org--><!--http://github.com/Kozea/pygal--><defs><style type="text/css">#chart-37f30abd-9ee6-4bc8-86a3-29b7781a5824{-webkit-user-select:none;-webkit-font-smoothing:antialiased;font-family:Consolas,"Liberation Mono",Menlo,Courier,monospace}#chart-37f30abd-9ee6-4bc8-86a3-29b7781a5824 .title{font-family:Consolas,"Liberation Mono",Menlo,Courier,monospace;font-size:16px}#chart-37f30abd-9ee6-4bc8-86a3-29b7781a5824 .legends .legend text{font-family:Consolas,"Liberation Mono",Menlo,Courier,monospace;font-size:14px}#chart-37f30abd-9ee6-4bc8-86a3-29b7781a5824 .axis text{font-family:Consolas,"Liberation Mono",Menlo,Courier,monospace;font-size:10px}#chart-37f30abd-9ee6-4bc8-86a3-29b7781a5824 .axis text.major{font-family:Consolas,"Liberation Mono",Menlo,Courier,monospace;font-size:10px}#chart-37f30abd-9ee6-4bc8-86a3-29b7781a5824 .text-overlay text.value{font-family:Consolas,"Liberation Mono",Menlo,Courier,monospace;font-size:16px}#chart-37f30abd-9ee6-4bc8-86a3-29b7781a5824 .text-overlay text.label{font-family:Consolas,"Liberation Mono",Menlo,Courier,monospace;font-size:10px}#chart-37f30abd-9ee6-4bc8-86a3-29b7781a5824 .tooltip{font-family:Consolas,"Liberation Mono",Menlo,Courier,monospace;font-size:14px}#chart-37f30abd-9ee6-4bc8-86a3-29b7781a5824 text.no_data{font-family:Consolas,"Liberation Mono",Menlo,Courier,monospace;font-size:64px}
#chart-37f30abd-9ee6-4bc8-86a3-29b7781a5824{background-color:#f8f8f8}#chart-37f30abd-9ee6-4bc8-86a3-29b7781a5824 path,#chart-37f30abd-9ee6-4bc8-86a3-29b7781a5824 line,#chart-37f30abd-9ee6-4bc8-86a3-29b7781a5824 rect,#chart-37f30abd-9ee6-4bc8-86a3-29b7781a5824 circle{-webkit-transition:250ms ease-in;-moz-transition:250ms ease-in;transition:250ms ease-in}#chart-37f30abd-9ee6-4bc8-86a3-29b7781a5824 .graph &gt; .background{fill:#f8f8f8}#chart-37f30abd-9ee6-4bc8-86a3-29b7781a5824 .plot &gt; .background{fill:#ffffff}#chart-37f30abd-9ee6-4bc8-86a3-29b7781a5824 .graph{fill:#333}#chart-37f30abd-9ee6-4bc8-86a3-29b7781a5824 text.no_data{fill:#666}#chart-37f30abd-9ee6-4bc8-86a3-29b7781a5824 .title{fill:#666}#chart-37f30abd-9ee6-4bc8-86a3-29b7781a5824 .legends .legend text{fill:#333}#chart-37f30abd-9ee6-4bc8-86a3-29b7781a5824 .legends .legend:hover text{fill:#666}#chart-37f30abd-9ee6-4bc8-86a3-29b7781a5824 .axis .line{stroke:#666}#chart-37f30abd-9ee6-4bc8-86a3-29b7781a5824 .axis .guide.line{stroke:rgba(0,0,0,0.5)}#chart-37f30abd-9ee6-4bc8-86a3-29b7781a5824 .axis .major.line{stroke:#333}#chart-37f30abd-9ee6-4bc8-86a3-29b7781a5824 .axis text.major{fill:#666}#chart-37f30abd-9ee6-4bc8-86a3-29b7781a5824 .axis.y .guides:hover .guide.line,#chart-37f30abd-9ee6-4bc8-86a3-29b7781a5824 .line-graph .axis.x .guides:hover .guide.line,#chart-37f30abd-9ee6-4bc8-86a3-29b7781a5824 .stackedline-graph .axis.x .guides:hover .guide.line,#chart-37f30abd-9ee6-4bc8-86a3-29b7781a5824 .xy-graph .axis.x .guides:hover .guide.line{stroke:#666}#chart-37f30abd-9ee6-4bc8-86a3-29b7781a5824 .axis .guides:hover text{fill:#666}#chart-37f30abd-9ee6-4bc8-86a3-29b7781a5824 .reactive{fill-opacity:.5;stroke-opacity:.8}#chart-37f30abd-9ee6-4bc8-86a3-29b7781a5824 .ci{stroke:#333}#chart-37f30abd-9ee6-4bc8-86a3-29b7781a5824 .reactive.active,#chart-37f30abd-9ee6-4bc8-86a3-29b7781a5824 .active .reactive{fill-opacity:.9;stroke-opacity:.9;stroke-width:4}#chart-37f30abd-9ee6-4bc8-86a3-29b7781a5824 .ci .reactive.active{stroke-width:1.5}#chart-37f30abd-9ee6-4bc8-86a3-29b7781a5824 .series text{fill:#666}#chart-37f30abd-9ee6-4bc8-86a3-29b7781a5824 .tooltip rect{fill:#ffffff;stroke:#666;-webkit-transition:opacity 250ms ease-in;-moz-transition:opacity 250ms ease-in;transition:opacity 250ms ease-in}#chart-37f30abd-9ee6-4bc8-86a3-29b7781a5824 .tooltip .label{fill:#333}#chart-37f30abd-9ee6-4bc8-86a3-29b7781a5824 .tooltip .label{fill:#333}#chart-37f30abd-9ee6-4bc8-86a3-29b7781a5824 .tooltip .legend{font-size:.8em;fill:rgba(0,0,0,0.5)}#chart-37f30abd-9ee6-4bc8-86a3-29b7781a5824 .tooltip .x_label{font-size:.6em;fill:#666}#chart-37f30abd-9ee6-4bc8-86a3-29b7781a5824 .tooltip .xlink{font-size:.5em;text-decoration:underline}#chart-37f30abd-9ee6-4bc8-86a3-29b7781a5824 .tooltip .value{font-size:1.5em}#chart-37f30abd-9ee6-4bc8-86a3-29b7781a5824 .bound{font-size:.5em}#chart-37f30abd-9ee6-4bc8-86a3-29b7781a5824 .max-value{font-size:.75em;fill:rgba(0,0,0,0.5)}#chart-37f30abd-9ee6-4bc8-86a3-29b7781a5824 .map-element{fill:#ffffff;stroke:rgba(0,0,0,0.5) !important}#chart-37f30abd-9ee6-4bc8-86a3-29b7781a5824 .map-element .reactive{fill-opacity:inherit;stroke-opacity:inherit}#chart-37f30abd-9ee6-4bc8-86a3-29b7781a5824 .color-0,#chart-37f30abd-9ee6-4bc8-86a3-29b7781a5824 .color-0 a:visited{stroke:#fe9592;fill:#fe9592}#chart-37f30abd-9ee6-4bc8-86a3-29b7781a5824 .color-1,#chart-37f30abd-9ee6-4bc8-86a3-29b7781a5824 .color-1 a:visited{stroke:#534f4c;fill:#534f4c}#chart-37f30abd-9ee6-4bc8-86a3-29b7781a5824 .color-2,#chart-37f30abd-9ee6-4bc8-86a3-29b7781a5824 .color-2 a:visited{stroke:#3ac2c0;fill:#3ac2c0}#chart-37f30abd-9ee6-4bc8-86a3-29b7781a5824 .color-3,#chart-37f30abd-9ee6-4bc8-86a3-29b7781a5824 .color-3 a:visited{stroke:#a2a7a1;fill:#a2a7a1}#chart-37f30abd-9ee6-4bc8-86a3-29b7781a5824 .color-4,#chart-37f30abd-9ee6-4bc8-86a3-29b7781a5824 .color-4 a:visited{stroke:#fd4b46;fill:#fd4b46}#chart-37f30abd-9ee6-4bc8-86a3-29b7781a5824 .color-5,#chart-37f30abd-9ee6-4bc8-86a3-29b7781a5824 .color-5 a:visited{stroke:#7b7571;fill:#7b7571}#chart-37f30abd-9ee6-4bc8-86a3-29b7781a5824 .text-overlay .color-0 text{fill:black}#chart-37f30abd-9ee6-4bc8-86a3-29b7781a5824 .text-overlay .color-1 text{fill:black}#chart-37f30abd-9ee6-4bc8-86a3-29b7781a5824 .text-overlay .color-2 text{fill:black}#chart-37f30abd-9ee6-4bc8-86a3-29b7781a5824 .text-overlay .color-3 text{fill:black}#chart-37f30abd-9ee6-4bc8-86a3-29b7781a5824 .text-overlay .color-4 text{fill:black}#chart-37f30abd-9ee6-4bc8-86a3-29b7781a5824 .text-overlay .color-5 text{fill:black}
#chart-37f30abd-9ee6-4bc8-86a3-29b7781a5824 text.no_data{text-anchor:middle}#chart-37f30abd-9ee6-4bc8-86a3-29b7781a5824 .guide.line{fill:none}#chart-37f30abd-9ee6-4bc8-86a3-29b7781a5824 .centered{text-anchor:middle}#chart-37f30abd-9ee6-4bc8-86a3-29b7781a5824 .title{text-anchor:middle}#chart-37f30abd-9ee6-4bc8-86a3-29b7781a5824 .legends .legend text{fill-opacity:1}#chart-37f30abd-9ee6-4bc8-86a3-29b7781a5824 .axis.x text{text-anchor:middle}#chart-37f30abd-9ee6-4bc8-86a3-29b7781a5824 .axis.x:not(.web) text[transform]{text-anchor:start}#chart-37f30abd-9ee6-4bc8-86a3-29b7781a5824 .axis.x:not(.web) text[transform].backwards{text-anchor:end}#chart-37f30abd-9ee6-4bc8-86a3-29b7781a5824 .axis.y text{text-anchor:end}#chart-37f30abd-9ee6-4bc8-86a3-29b7781a5824 .axis.y text[transform].backwards{text-anchor:start}#chart-37f30abd-9ee6-4bc8-86a3-29b7781a5824 .axis.y2 text{text-anchor:start}#chart-37f30abd-9ee6-4bc8-86a3-29b7781a5824 .axis.y2 text[transform].backwards{text-anchor:end}#chart-37f30abd-9ee6-4bc8-86a3-29b7781a5824 .axis .guide.line{stroke-dasharray:4,4}#chart-37f30abd-9ee6-4bc8-86a3-29b7781a5824 .axis .major.guide.line{stroke-dasharray:6,6}#chart-37f30abd-9ee6-4bc8-86a3-29b7781a5824 .horizontal .axis.y .guide.line,#chart-37f30abd-9ee6-4bc8-86a3-29b7781a5824 .horizontal .axis.y2 .guide.line,#chart-37f30abd-9ee6-4bc8-86a3-29b7781a5824 .vertical .axis.x .guide.line{opacity:0}#chart-37f30abd-9ee6-4bc8-86a3-29b7781a5824 .horizontal .axis.always_show .guide.line,#chart-37f30abd-9ee6-4bc8-86a3-29b7781a5824 .vertical .axis.always_show .guide.line{opacity:1 !important}#chart-37f30abd-9ee6-4bc8-86a3-29b7781a5824 .axis.y .guides:hover .guide.line,#chart-37f30abd-9ee6-4bc8-86a3-29b7781a5824 .axis.y2 .guides:hover .guide.line,#chart-37f30abd-9ee6-4bc8-86a3-29b7781a5824 .axis.x .guides:hover .guide.line{opacity:1}#chart-37f30abd-9ee6-4bc8-86a3-29b7781a5824 .axis .guides:hover text{opacity:1}#chart-37f30abd-9ee6-4bc8-86a3-29b7781a5824 .nofill{fill:none}#chart-37f30abd-9ee6-4bc8-86a3-29b7781a5824 .subtle-fill{fill-opacity:.2}#chart-37f30abd-9ee6-4bc8-86a3-29b7781a5824 .dot{stroke-width:1px;fill-opacity:1}#chart-37f30abd-9ee6-4bc8-86a3-29b7781a5824 .dot.active{stroke-width:5px}#chart-37f30abd-9ee6-4bc8-86a3-29b7781a5824 .dot.negative{fill:transparent}#chart-37f30abd-9ee6-4bc8-86a3-29b7781a5824 text,#chart-37f30abd-9ee6-4bc8-86a3-29b7781a5824 tspan{stroke:none !important}#chart-37f30abd-9ee6-4bc8-86a3-29b7781a5824 .series text.active{opacity:1}#chart-37f30abd-9ee6-4bc8-86a3-29b7781a5824 .tooltip rect{fill-opacity:.95;stroke-width:.5}#chart-37f30abd-9ee6-4bc8-86a3-29b7781a5824 .tooltip text{fill-opacity:1}#chart-37f30abd-9ee6-4bc8-86a3-29b7781a5824 .showable{visibility:hidden}#chart-37f30abd-9ee6-4bc8-86a3-29b7781a5824 .showable.shown{visibility:visible}#chart-37f30abd-9ee6-4bc8-86a3-29b7781a5824 .gauge-background{fill:rgba(229,229,229,1);stroke:none}#chart-37f30abd-9ee6-4bc8-86a3-29b7781a5824 .bg-lines{stroke:#f8f8f8;stroke-width:2px}</style><script type="text/javascript">window.pygal = window.pygal || {};window.pygal.config = window.pygal.config || {};window.pygal.config['37f30abd-9ee6-4bc8-86a3-29b7781a5824'] = {"dynamic_print_values": false, "half_pie": false, "interpolation_parameters": {}, "title": "\u0e27\u0e38\u0e12\u0e34\u0e01\u0e32\u0e23\u0e28\u0e36\u0e01\u0e29\u0e32", "inverse_y_axis": false, "pretty_print": false, "formatter": null, "show_minor_y_labels": true, "show_dots": true, "y_labels_major_every": null, "show_y_labels": true, "force_uri_protocol": "https", "print_labels": false, "box_mode": "extremes", "dots_size": 2.5, "print_values_position": "center", "xrange": null, "include_x_axis": false, "show_legend": true, "order_min": null, "x_labels_major": null, "js": ["//kozea.github.io/pygal.js/2.0.x/pygal-tooltips.min.js"], "y_labels_major": null, "classes": ["pygal-chart"], "explicit_size": false, "interpolate": "cubic", "truncate_legend": null, "legend_at_bottom_columns": null, "no_data_text": "No data", "inner_radius": 0, "disable_xml_declaration": false, "range": null, "width": 800, "spacing": 10, "zero": 0, "rounded_bars": null, "interpolation_precision": 250, "logarithmic": false, "defs": [], "strict": false, "max_scale": 16, "height": 600, "show_y_guides": true, "y_labels": null, "show_minor_x_labels": true, "style": {"major_label_font_family": "Consolas, \"Liberation Mono\", Menlo, Courier, monospace", "value_font_size": 16, "title_font_family": "Consolas, \"Liberation Mono\", Menlo, Courier, monospace", "value_colors": [], "font_family": "Consolas, \"Liberation Mono\", Menlo, Courier, monospace", "no_data_font_size": 64, "legend_font_family": "Consolas, \"Liberation Mono\", Menlo, Courier, monospace", "colors": ["#fe9592", "#534f4c", "#3ac2c0", "#a2a7a1", "#fd4b46", "#7b7571", "#73d5d4", "#c9ccc9", "#ffdfde", "#2e9b99"], "stroke_opacity_hover": ".9", "guide_stroke_dasharray": "4,4", "plot_background": "#ffffff", "transition": "250ms ease-in", "no_data_font_family": "Consolas, \"Liberation Mono\", Menlo, Courier, monospace", "ci_colors": [], "label_font_family": "Consolas, \"Liberation Mono\", Menlo, Courier, monospace", "value_background": "rgba(229, 229, 229, 1)", "value_label_font_family": "Consolas, \"Liberation Mono\", Menlo, Courier, monospace", "major_label_font_size": 10, "legend_font_size": 14, "stroke_opacity": ".8", "opacity_hover": ".9", "tooltip_font_family": "Consolas, \"Liberation Mono\", Menlo, Courier, monospace", "foreground": "#333", "tooltip_font_size": 14, "major_guide_stroke_dasharray": "6,6", "value_label_font_size": 10, "label_font_size": 10, "foreground_strong": "#666", "title_font_size": 16, "opacity": ".5", "foreground_subtle": "rgba(0, 0 , 0, 0.5)", "background": "#f8f8f8", "value_font_family": "Consolas, \"Liberation Mono\", Menlo, Courier, monospace"}, "allow_interruptions": false, "print_zeroes": true, "margin_bottom": null, "margin_right": null, "margin_left": null, "x_labels_major_every": null, "y_title": null, "truncate_label": null, "margin_top": null, "tooltip_fancy_mode": true, "fill": true, "missing_value_fill_truncation": "x", "stroke": true, "y_labels_major_count": null, "no_prefix": false, "stack_from_top": false, "legend_box_size": 12, "show_only_major_dots": false, "print_values": false, "show_x_labels": true, "min_scale": 4, "tooltip_border_radius": 0, "x_title": null, "show_x_guides": false, "x_label_rotation": 0, "legends": ["\u0e1b\u0e23\u0e30\u0e16\u0e21\u0e28\u0e36\u0e01\u0e29\u0e32\u0e2b\u0e23\u0e37\u0e2d\u0e15\u0e48\u0e33\u0e01\u0e27\u0e48\u0e32", "\u0e21\u0e31\u0e18\u0e22\u0e21\u0e28\u0e36\u0e01\u0e29\u0e32\u0e15\u0e2d\u0e19\u0e15\u0e49\u0e19", "\u0e21\u0e31\u0e18\u0e22\u0e21\u0e28\u0e36\u0e01\u0e29\u0e32\u0e15\u0e2d\u0e19\u0e1b\u0e25\u0e32\u0e22", "\u0e2d\u0e32\u0e0a\u0e35\u0e27\u0e28\u0e36\u0e01\u0e29\u0e32", "\u0e1b\u0e23\u0e30\u0e01\u0e32\u0e28\u0e19\u0e35\u0e22\u0e1a\u0e31\u0e15\u0e23\u0e27\u0e34\u0e0a\u0e32\u0e0a\u0e35\u0e1e\u0e0a\u0e31\u0e49\u0e19\u0e2a\u0e39\u0e07", "\u0e1b\u0e23\u0e34\u0e0d\u0e0d\u0e32\u0e15\u0e23\u0e35"], "margin": 20, "stroke_style": null, "x_labels": ["2556/1", "2556/2", "2556/3", "2556/4", "2557/1", "2557/2", "2557/3", "2557/4", "2558/1", "2558/2", "2558/3", "2558/4"], "css": ["file://style.css", "file://graph.css"], "legend_at_bottom": false, "x_labels_major_count": null, "secondary_range": null, "y_label_rotation": 0}</script><script type="text/javascript" xlink:href="https://kozea.github.io/pygal.js/2.0.x/pygal-tooltips.min.js" /></defs><title>วุฒิการศึกษา</title><g class="graph pie-graph vertical"><rect class="background" height="600" width="800" x="0" y="0" /><g class="plot" transform="translate(168, 46)"><rect class="background" height="534" width="612.0" x="0" y="0" /><g class="series serie-0 color-0"><g class="slices"><g class="slice"><path class="slice reactive tooltip-trigger" d="M306.000000 0.000000 A267.000000 267.000000 0 0 1 334.885785 1.567124 L331.997206 28.110412 A240.300000 240.300000 0 0 0 306.000000 26.700000 z" /><desc class="value">66.67</desc><desc class="x centered">319.7409252423469</desc><desc class="y centered">13.722465517598181</desc></g><g class="slice"><path class="slice reactive tooltip-trigger" d="M334.885785 1.567124 A267.000000 267.000000 0 0 1 363.275613 6.215598 L357.548052 32.294039 A240.300000 240.300000 0 0 0 331.997206 28.110412 z" /><desc class="value">66.3</desc><desc class="x centered">346.98618311655775</desc><desc class="y centered">16.683290023346615</desc></g><g class="slice"><path class="slice reactive tooltip-trigger" d="M363.275613 6.215598 A267.000000 267.000000 0 0 1 387.196830 12.645769 L379.077147 38.081192 A240.300000 240.300000 0 0 0 357.548052 32.294039 z" /><desc class="value">57.08</desc><desc class="x centered">371.8452884219953</desc><desc class="y centered">22.045472602312856</desc></g><g class="slice"><path class="slice reactive tooltip-trigger" d="M387.196830 12.645769 A267.000000 267.000000 0 0 1 409.915561 21.051720 L399.524005 45.646548 A240.300000 240.300000 0 0 0 379.077147 38.081192 z" /><desc class="value">55.82</desc><desc class="x centered">394.0189958456053</desc><desc class="y centered">29.11141500624433</desc></g><g class="slice"><path class="slice reactive tooltip-trigger" d="M409.915561 21.051720 A267.000000 267.000000 0 0 1 445.618698 39.413491 L431.656829 62.172142 A240.300000 240.300000 0 0 0 399.524005 45.646548 z" /><desc class="value">92.57</desc><desc class="x centered">422.0071076894711</desc><desc class="y centered">41.43255229195094</desc></g><g class="slice"><path class="slice reactive tooltip-trigger" d="M445.618698 39.413491 A267.000000 267.000000 0 0 1 472.930540 58.617671 L456.237486 79.455904 A240.300000 240.300000 0 0 0 431.656829 62.172142 z" /><desc class="value">76.96</desc><desc class="x centered">451.8963377874778</desc><desc class="y centered">59.50884086255104</desc></g><g class="slice"><path class="slice reactive tooltip-trigger" d="M472.930540 58.617671 A267.000000 267.000000 0 0 1 495.900872 79.312337 L476.910785 98.081103 A240.300000 240.300000 0 0 0 456.237486 79.455904 z" /><desc class="value">71.26</desc><desc class="x centered">475.77972883601507</desc><desc class="y centered">78.55062702049338</desc></g><g class="slice"><path class="slice reactive tooltip-trigger" d="M495.900872 79.312337 A267.000000 267.000000 0 0 1 534.066408 128.166598 L511.259767 142.049938 A240.300000 240.300000 0 0 0 476.910785 98.081103 z" /><desc class="value">143.13</desc><desc class="x centered">505.88606497701903</desc><desc class="y centered">110.84660257297341</desc></g><g class="slice"><path class="slice reactive tooltip-trigger" d="M534.066408 128.166598 A267.000000 267.000000 0 0 1 551.603960 162.273237 L527.043564 172.745913 A240.300000 240.300000 0 0 0 511.259767 142.049938 z" /><desc class="value">88.42</desc><desc class="x centered">531.5759348119414</desc><desc class="y centered">151.0093963559168</desc></g><g class="slice"><path class="slice reactive tooltip-trigger" d="M551.603960 162.273237 A267.000000 267.000000 0 0 1 561.698287 190.140479 L536.128458 197.826431 A240.300000 240.300000 0 0 0 527.043564 172.745913 z" /><desc class="value">68.31</desc><desc class="x centered">544.4862022512393</desc><desc class="y centered">180.6133468886486</desc></g><g class="slice"><path class="slice reactive tooltip-trigger" d="M561.698287 190.140479 A267.000000 267.000000 0 0 1 568.619801 218.835282 L542.357821 223.651753 A240.300000 240.300000 0 0 0 536.128458 197.826431 z" /><desc class="value">68.03</desc><desc class="x centered">552.5780918865996</desc><desc class="y centered">207.52254963800445</desc></g><g class="slice"><path class="slice reactive tooltip-trigger" d="M568.619801 218.835282 A267.000000 267.000000 0 0 1 572.586601 252.147921 L545.927941 253.633129 A240.300000 240.300000 0 0 0 542.357821 223.651753 z" /><desc class="value">77.33</desc><desc class="x centered">557.8705798050356</desc><desc class="y centered">237.00777552972767</desc></g><g class="big_slice"><path class="slice reactive tooltip-trigger" d="M306.000000 26.700000 A240.300000 240.300000 0 0 1 545.927941 253.633129 L306.000000 267.000000 A0.000000 0.000000 0 0 0 306.000000 267.000000 z" /><desc class="value">931.88</desc><desc class="x centered">388.56212128418065</desc><desc class="y centered">179.71014589852814</desc></g></g></g><g class="series serie-1 color-1"><g class="slices"><g class="slice"><path class="slice reactive tooltip-trigger" d="M572.586601 252.147921 A267.000000 267.000000 0 0 1 572.583456 281.908426 L545.925110 280.417583 A240.300000 240.300000 0 0 0 545.927941 253.633129 z" /><desc class="value">68.59</desc><desc class="x centered">559.6499985834948</desc><desc class="y centered">267.02680658692145</desc></g><g class="slice"><path class="slice reactive tooltip-trigger" d="M572.583456 281.908426 A267.000000 267.000000 0 0 1 570.279741 305.016031 L543.851767 301.214428 A240.300000 240.300000 0 0 0 545.925110 280.417583 z" /><desc class="value">53.51</desc><desc class="x centered">558.3987913735219</desc><desc class="y centered">292.16292139608095</desc></g><g class="slice"><path class="slice reactive tooltip-trigger" d="M570.279741 305.016031 A267.000000 267.000000 0 0 1 565.881598 328.241776 L539.893438 322.117598 A240.300000 240.300000 0 0 0 543.851767 301.214428 z" /><desc class="value">54.47</desc><desc class="x centered">555.2209366656875</desc><desc class="y centered">314.19372021230555</desc></g><g class="slice"><path class="slice reactive tooltip-trigger" d="M565.881598 328.241776 A267.000000 267.000000 0 0 1 558.749706 353.061525 L533.474736 344.455372 A240.300000 240.300000 0 0 0 539.893438 322.117598 z" /><desc class="value">59.51</desc><desc class="x centered">549.7851018620894</desc><desc class="y centered">337.0510286155079</desc></g><g class="slice"><path class="slice reactive tooltip-trigger" d="M558.749706 353.061525 A267.000000 267.000000 0 0 1 547.299849 381.295157 L523.169864 369.865641 A240.300000 240.300000 0 0 0 533.474736 344.455372 z" /><desc class="value">70.22</desc><desc class="x centered">541.0564273270754</desc><desc class="y centered">362.32470022104087</desc></g><g class="slice"><path class="slice reactive tooltip-trigger" d="M547.299849 381.295157 A267.000000 267.000000 0 0 1 530.500260 411.529005 L508.050234 397.076105 A240.300000 240.300000 0 0 0 523.169864 369.865641 z" /><desc class="value">79.73</desc><desc class="x centered">527.7206315655834</desc><desc class="y centered">390.20017872616427</desc></g><g class="slice"><path class="slice reactive tooltip-trigger" d="M530.500260 411.529005 A267.000000 267.000000 0 0 1 508.714973 440.768926 L488.443476 423.392033 A240.300000 240.300000 0 0 0 508.050234 397.076105 z" /><desc class="value">84.06</desc><desc class="x centered">509.4019819486525</desc><desc class="y centered">418.54522836222867</desc></g><g class="slice"><path class="slice reactive tooltip-trigger" d="M508.714973 440.768926 A267.000000 267.000000 0 0 1 491.545457 458.994488 L472.990911 439.795039 A240.300000 240.300000 0 0 0 488.443476 423.392033 z" /><desc class="value">57.7</desc><desc class="x centered">490.62678241716617</desc><desc class="y centered">440.9289329418323</desc></g><g class="slice"><path class="slice reactive tooltip-trigger" d="M491.545457 458.994488 A267.000000 267.000000 0 0 1 465.789218 480.907470 L449.810296 459.516723 A240.300000 240.300000 0 0 0 472.990911 439.795039 z" /><desc class="value">77.95</desc><desc class="x centered">470.3638761350147</desc><desc class="y centered">460.19119731984046</desc></g><g class="slice"><path class="slice reactive tooltip-trigger" d="M465.789218 480.907470 A267.000000 267.000000 0 0 1 447.482635 493.432471 L433.334371 470.789224 A240.300000 240.300000 0 0 0 449.810296 459.516723 z" /><desc class="value">51.11</desc><desc class="x centered">449.22774557143003</desc><desc class="y centered">476.34214912082496</desc></g><g class="slice"><path class="slice reactive tooltip-trigger" d="M447.482635 493.432471 A267.000000 267.000000 0 0 1 419.399863 508.721888 L408.059877 484.549699 A240.300000 240.300000 0 0 0 433.334371 470.789224 z" /><desc class="value">73.7</desc><desc class="x centered">427.28681497948696</desc><desc class="y centered">489.773048217534</desc></g><g class="slice"><path class="slice reactive tooltip-trigger" d="M419.399863 508.721888 A267.000000 267.000000 0 0 1 395.619841 518.510008 L386.657857 493.359007 A240.300000 240.300000 0 0 0 408.059877 484.549699 z" /><desc class="value">59.26</desc><desc class="x centered">402.54637337963305</desc><desc class="y centered">501.55728572619626</desc></g><g class="big_slice"><path class="slice reactive tooltip-trigger" d="M545.927941 253.633129 A240.300000 240.300000 0 0 1 386.657857 493.359007 L306.000000 267.000000 A0.000000 0.000000 0 0 0 306.000000 267.000000 z" /><desc class="value">789.81</desc><desc class="x centered">406.0761429092134</desc><desc class="y centered">333.489007515639</desc></g></g></g><g class="series serie-2 color-2"><g class="slices"><g class="slice"><path class="slice reactive tooltip-trigger" d="M395.619841 518.510008 A267.000000 267.000000 0 0 1 377.705809 524.191129 L370.535228 498.472016 A240.300000 240.300000 0 0 0 386.657857 493.359007 z" /><desc class="value">43.3</desc><desc class="x centered">382.677183655262</desc><desc class="y centered">508.7828199163398</desc></g><g class="slice"><path class="slice reactive tooltip-trigger" d="M377.705809 524.191129 A267.000000 267.000000 0 0 1 361.947730 528.072502 L356.352957 501.965252 A240.300000 240.300000 0 0 0 370.535228 498.472016 z" /><desc class="value">37.39</desc><desc class="x centered">366.66345303740724</desc><desc class="y centered">513.2889927820127</desc></g><g class="slice"><path class="slice reactive tooltip-trigger" d="M361.947730 528.072502 A267.000000 267.000000 0 0 1 342.752307 531.458443 L339.077076 505.012598 A240.300000 240.300000 0 0 0 356.352957 501.965252 z" /><desc class="value">44.91</desc><desc class="x centered">350.06188028370576</desc><desc class="y centered">516.7936612603778</desc></g><g class="slice"><path class="slice reactive tooltip-trigger" d="M342.752307 531.458443 A267.000000 267.000000 0 0 1 328.153426 533.079360 L325.938083 506.471424 A240.300000 240.300000 0 0 0 339.077076 505.012598 z" /><desc class="value">33.84</desc><desc class="x centered">333.99081445366505</desc><desc class="y centered">519.1008465004045</desc></g><g class="slice"><path class="slice reactive tooltip-trigger" d="M328.153426 533.079360 A267.000000 267.000000 0 0 1 306.455820 533.999611 L306.410238 507.299650 A240.300000 240.300000 0 0 0 325.938083 506.471424 z" /><desc class="value">50.04</desc><desc class="x centered">316.7482842233909</desc><desc class="y centered">520.4221712602376</desc></g><g class="slice"><path class="slice reactive tooltip-trigger" d="M306.455820 533.999611 A267.000000 267.000000 0 0 1 283.284221 533.031941 L285.555799 506.428746 A240.300000 240.300000 0 0 0 306.410238 507.299650 z" /><desc class="value">53.44</desc><desc class="x centered">295.4165334796896</desc><desc class="y centered">520.4291079107005</desc></g><g class="slice"><path class="slice reactive tooltip-trigger" d="M283.284221 533.031941 A267.000000 267.000000 0 0 1 264.759897 530.795857 L268.883907 504.416271 A240.300000 240.300000 0 0 0 285.555799 506.428746 z" /><desc class="value">42.99</desc><desc class="x centered">275.6023938429543</desc><desc class="y centered">518.8219768803373</desc></g><g class="slice"><path class="slice reactive tooltip-trigger" d="M264.759897 530.795857 A267.000000 267.000000 0 0 1 252.920804 528.670783 L258.228723 502.503705 A240.300000 240.300000 0 0 0 268.883907 504.416271 z" /><desc class="value">27.71</desc><desc class="x centered">261.1869629935703</desc><desc class="y centered">516.6599972247463</desc></g><g class="slice"><path class="slice reactive tooltip-trigger" d="M252.920804 528.670783 A267.000000 267.000000 0 0 1 228.936791 522.636973 L236.643112 497.073276 A240.300000 240.300000 0 0 0 258.228723 502.503705 z" /><desc class="value">56.99</desc><desc class="x centered">244.1159534824822</desc><desc class="y centered">512.985136312375</desc></g><g class="slice"><path class="slice reactive tooltip-trigger" d="M228.936791 522.636973 A267.000000 267.000000 0 0 1 206.076738 514.597136 L216.069064 489.837422 A240.300000 240.300000 0 0 0 236.643112 497.073276 z" /><desc class="value">55.84</desc><desc class="x centered">221.84473121478973</desc><desc class="y centered">506.2827056761291</desc></g><g class="slice"><path class="slice reactive tooltip-trigger" d="M206.076738 514.597136 A267.000000 267.000000 0 0 1 185.683933 505.354870 L197.715540 481.519383 A240.300000 240.300000 0 0 0 216.069064 489.837422 z" /><desc class="value">51.59</desc><desc class="x centered">201.29424522363345</desc><desc class="y centered">498.0303603786987</desc></g><g class="slice"><path class="slice reactive tooltip-trigger" d="M185.683933 505.354870 A267.000000 267.000000 0 0 1 167.723230 495.404323 L181.550907 472.563891 A240.300000 240.300000 0 0 0 197.715540 481.519383 z" /><desc class="value">47.31</desc><desc class="x centered">183.0774990036339</desc><desc class="y centered">488.87469718018406</desc></g><g class="big_slice"><path class="slice reactive tooltip-trigger" d="M386.657857 493.359007 A240.300000 240.300000 0 0 1 181.550907 472.563891 L306.000000 267.000000 A0.000000 0.000000 0 0 0 306.000000 267.000000 z" /><desc class="value">545.35</desc><desc class="x centered">293.8805185988611</desc><desc class="y centered">386.53719367028594</desc></g></g></g><g class="series serie-3 color-3"><g class="slices"><g class="slice"><path class="slice reactive tooltip-trigger" d="M167.723230 495.404323 A267.000000 267.000000 0 0 1 163.686289 492.911062 L177.917660 470.319955 A240.300000 240.300000 0 0 0 181.550907 472.563891 z" /><desc class="value">10.93</desc><desc class="x centered">172.71425995711385</desc><desc class="y centered">482.80832699694463</desc></g><g class="slice"><path class="slice reactive tooltip-trigger" d="M163.686289 492.911062 A267.000000 267.000000 0 0 1 160.315824 490.752365 L174.884241 468.377128 A240.300000 240.300000 0 0 0 177.917660 470.319955 z" /><desc class="value">9.22</desc><desc class="x centered">169.1971607748453</desc><desc class="y centered">480.59612749283747</desc></g><g class="slice"><path class="slice reactive tooltip-trigger" d="M160.315824 490.752365 A267.000000 267.000000 0 0 1 152.933137 485.768223 L168.239823 463.891401 A240.300000 240.300000 0 0 0 174.884241 468.377128 z" /><desc class="value">20.52</desc><desc class="x centered">164.07350909117423</desc><desc class="y centered">477.2265294350525</desc></g><g class="slice"><path class="slice reactive tooltip-trigger" d="M152.933137 485.768223 A267.000000 267.000000 0 0 1 147.416664 481.802992 L163.274997 460.322693 A240.300000 240.300000 0 0 0 168.239823 463.891401 z" /><desc class="value">15.65</desc><desc class="x centered">157.95417370951608</desc><desc class="y centered">472.9629962346826</desc></g><g class="slice"><path class="slice reactive tooltip-trigger" d="M147.416664 481.802992 A267.000000 267.000000 0 0 1 141.059010 476.960639 L157.553109 455.964575 A240.300000 240.300000 0 0 0 163.274997 460.322693 z" /><desc class="value">18.41</desc><desc class="x centered">152.3087326116326</desc><desc class="y centered">468.78532362032024</desc></g><g class="slice"><path class="slice reactive tooltip-trigger" d="M141.059010 476.960639 A267.000000 267.000000 0 0 1 134.356495 471.517743 L151.520845 451.065969 A240.300000 240.300000 0 0 0 157.553109 455.964575 z" /><desc class="value">19.89</desc><desc class="x centered">146.10146234337068</desc><desc class="y centered">463.90297142316444</desc></g><g class="slice"><path class="slice reactive tooltip-trigger" d="M134.356495 471.517743 A267.000000 267.000000 0 0 1 130.042944 467.818611 L147.638650 447.736750 A240.300000 240.300000 0 0 0 151.520845 451.065969 z" /><desc class="value">13.09</desc><desc class="x centered">140.8803844876829</desc><desc class="y centered">459.54567009690084</desc></g><g class="slice"><path class="slice reactive tooltip-trigger" d="M130.042944 467.818611 A267.000000 267.000000 0 0 1 125.841130 464.057813 L143.857017 444.352032 A240.300000 240.300000 0 0 0 147.638650 447.736750 z" /><desc class="value">12.99</desc><desc class="x centered">136.83550312785476</desc><desc class="y centered">456.001839932827</desc></g><g class="slice"><path class="slice reactive tooltip-trigger" d="M125.841130 464.057813 A267.000000 267.000000 0 0 1 120.873282 459.398281 L139.385954 440.158453 A240.300000 240.300000 0 0 0 143.857017 444.352032 z" /><desc class="value">15.69</desc><desc class="x centered">132.47523052892637</desc><desc class="y centered">452.00669414918684</desc></g><g class="slice"><path class="slice reactive tooltip-trigger" d="M120.873282 459.398281 A267.000000 267.000000 0 0 1 115.766801 454.350821 L134.790121 435.615739 A240.300000 240.300000 0 0 0 139.385954 440.158453 z" /><desc class="value">16.54</desc><desc class="x centered">127.68792054340807</desc><desc class="y centered">447.3971308526443</desc></g><g class="slice"><path class="slice reactive tooltip-trigger" d="M115.766801 454.350821 A267.000000 267.000000 0 0 1 110.303977 448.637184 L129.873579 430.473465 A240.300000 240.300000 0 0 0 134.790121 435.615739 z" /><desc class="value">18.21</desc><desc class="x centered">122.66353064867292</desc><desc class="y centered">442.28850933757724</desc></g><g class="slice"><path class="slice reactive tooltip-trigger" d="M110.303977 448.637184 A267.000000 267.000000 0 0 1 106.217621 444.132721 L126.195859 426.419449 A240.300000 240.300000 0 0 0 129.873579 430.473465 z" /><desc class="value">14.01</desc><desc class="x centered">118.13557425835799</desc><desc class="y centered">437.4267585819876</desc></g><g class="big_slice"><path class="slice reactive tooltip-trigger" d="M181.550907 472.563891 A240.300000 240.300000 0 0 1 126.195859 426.419449 L306.000000 267.000000 A0.000000 0.000000 0 0 0 306.000000 267.000000 z" /><desc class="value">185.15</desc><desc class="x centered">229.06685522055497</desc><desc class="y centered">359.2892937146284</desc></g></g></g><g class="series serie-4 color-4"><g class="slices"><g class="slice"><path class="slice reactive tooltip-trigger" d="M106.217621 444.132721 A267.000000 267.000000 0 0 1 100.231906 437.142562 L120.808715 420.128306 A240.300000 240.300000 0 0 0 126.195859 426.419449 z" /><desc class="value">21.2</desc><desc class="x centered">113.33491220500287</desc><desc class="y centered">431.98026077366364</desc></g><g class="slice"><path class="slice reactive tooltip-trigger" d="M100.231906 437.142562 A267.000000 267.000000 0 0 1 89.876676 423.779172 L111.489008 408.101255 A240.300000 240.300000 0 0 0 120.808715 420.128306 z" /><desc class="value">38.95</desc><desc class="x centered">105.50107130407713</desc><desc class="y centered">422.36570436163584</desc></g><g class="slice"><path class="slice reactive tooltip-trigger" d="M89.876676 423.779172 A267.000000 267.000000 0 0 1 81.565561 411.631194 L104.009004 397.168075 A240.300000 240.300000 0 0 0 111.489008 408.101255 z" /><desc class="value">33.91</desc><desc class="x centered">96.65552216977986</desc><desc class="y centered">410.2243418626613</desc></g><g class="slice"><path class="slice reactive tooltip-trigger" d="M81.565561 411.631194 A267.000000 267.000000 0 0 1 76.054385 402.698246 L99.048946 389.128422 A240.300000 240.300000 0 0 0 104.009004 397.168075 z" /><desc class="value">24.18</desc><desc class="x centered">90.12776866857254</desc><desc class="y centered">400.18221442816855</desc></g><g class="slice"><path class="slice reactive tooltip-trigger" d="M76.054385 402.698246 A267.000000 267.000000 0 0 1 70.529197 392.866997 L94.076277 380.280297 A240.300000 240.300000 0 0 0 99.048946 389.128422 z" /><desc class="value">25.98</desc><desc class="x centered">84.8778849098008</desc><desc class="y centered">391.2712063111834</desc></g><g class="slice"><path class="slice reactive tooltip-trigger" d="M70.529197 392.866997 A267.000000 267.000000 0 0 1 64.431365 380.725963 L88.588229 369.353366 A240.300000 240.300000 0 0 0 94.076277 380.280297 z" /><desc class="value">31.3</desc><desc class="x centered">79.33289145928322</desc><desc class="y centered">380.84350840426043</desc></g><g class="slice"><path class="slice reactive tooltip-trigger" d="M64.431365 380.725963 A267.000000 267.000000 0 0 1 60.576896 372.149894 L85.119207 361.634905 A240.300000 240.300000 0 0 0 88.588229 369.353366 z" /><desc class="value">21.66</desc><desc class="x centered">74.64305804942762</desc><desc class="y centered">370.9821518880981</desc></g><g class="slice"><path class="slice reactive tooltip-trigger" d="M60.576896 372.149894 A267.000000 267.000000 0 0 1 57.862282 365.573185 L82.676054 355.715867 A240.300000 240.300000 0 0 0 85.119207 361.634905 z" /><desc class="value">16.39</desc><desc class="x centered">71.53779734429628</desc><desc class="y centered">363.77705319876054</desc></g><g class="slice"><path class="slice reactive tooltip-trigger" d="M57.862282 365.573185 A267.000000 267.000000 0 0 1 54.067347 355.424761 L79.260612 346.582285 A240.300000 240.300000 0 0 0 82.676054 355.715867 z" /><desc class="value">24.96</desc><desc class="x centered">68.41766506220324</desc><desc class="y centered">355.84231326065617</desc></g><g class="slice"><path class="slice reactive tooltip-trigger" d="M54.067347 355.424761 A267.000000 267.000000 0 0 1 49.559262 341.344789 L75.203335 333.910311 A240.300000 240.300000 0 0 0 79.260612 346.582285 z" /><desc class="value">34.06</desc><desc class="x centered">64.4300411812072</desc><desc class="y centered">344.3451840536096</desc></g><g class="slice"><path class="slice reactive tooltip-trigger" d="M49.559262 341.344789 A267.000000 267.000000 0 0 1 45.711094 326.486850 L71.739984 320.538165 A240.300000 240.300000 0 0 0 75.203335 333.910311 z" /><desc class="value">35.36</desc><desc class="x centered">60.4519745561511</desc><desc class="y centered">330.59630257040845</desc></g><g class="slice"><path class="slice reactive tooltip-trigger" d="M45.711094 326.486850 A267.000000 267.000000 0 0 1 43.689269 316.820482 L69.920342 311.838434 A240.300000 240.300000 0 0 0 71.739984 320.538165 z" /><desc class="value">22.75</desc><desc class="x centered">57.72271196596182</desc><desc class="y centered">318.9298637246743</desc></g><g class="big_slice"><path class="slice reactive tooltip-trigger" d="M126.195859 426.419449 A240.300000 240.300000 0 0 1 69.920342 311.838434 L306.000000 267.000000 A0.000000 0.000000 0 0 0 306.000000 267.000000 z" /><desc class="value">330.7</desc><desc class="x centered">198.15516251973298</desc><desc class="y centered">319.9670985504662</desc></g></g></g><g class="series serie-5 color-5"><g class="slices"><g class="slice"><path class="slice reactive tooltip-trigger" d="M43.689269 316.820482 A267.000000 267.000000 0 0 1 39.736394 286.816466 L66.362755 284.834819 A240.300000 240.300000 0 0 0 69.920342 311.838434 z" /><desc class="value">69.75</desc><desc class="x centered">54.52301746714116</desc><desc class="y centered">300.13079769894176</desc></g><g class="slice"><path class="slice reactive tooltip-trigger" d="M39.736394 286.816466 A267.000000 267.000000 0 0 1 39.594764 249.188485 L66.235287 250.969636 A240.300000 240.300000 0 0 0 66.362755 284.834819 z" /><desc class="value">86.75</desc><desc class="x centered">52.351796771904986</desc><desc class="y centered">267.9547246508893</desc></g><g class="slice"><path class="slice reactive tooltip-trigger" d="M39.594764 249.188485 A267.000000 267.000000 0 0 1 45.480949 208.529288 L71.532854 214.376359 A240.300000 240.300000 0 0 0 66.235287 250.969636 z" /><desc class="value">94.73</desc><desc class="x centered">54.96693787310153</desc><desc class="y centered">230.65823037890516</desc></g><g class="slice"><path class="slice reactive tooltip-trigger" d="M45.480949 208.529288 A267.000000 267.000000 0 0 1 53.366664 180.597469 L78.629997 189.237722 A240.300000 240.300000 0 0 0 71.532854 214.376359 z" /><desc class="value">66.89</desc><desc class="x centered">61.89179293798324</desc><desc class="y centered">198.08334203570558</desc></g><g class="slice"><path class="slice reactive tooltip-trigger" d="M53.366664 180.597469 A267.000000 267.000000 0 0 1 67.475178 147.021214 L91.327660 159.019093 A240.300000 240.300000 0 0 0 78.629997 189.237722 z" /><desc class="value">83.96</desc><desc class="x centered">72.15537158088057</desc><desc class="y centered">168.7400780606662</desc></g><g class="slice"><path class="slice reactive tooltip-trigger" d="M67.475178 147.021214 A267.000000 267.000000 0 0 1 96.431491 101.561069 L117.388342 118.104962 A240.300000 240.300000 0 0 0 91.327660 159.019093 z" /><desc class="value">124.37</desc><desc class="x centered">92.06311192606097</desc><desc class="y centered">130.7306695501923</desc></g><g class="slice"><path class="slice reactive tooltip-trigger" d="M96.431491 101.561069 A267.000000 267.000000 0 0 1 123.921008 71.714976 L142.128907 91.243478 A240.300000 240.300000 0 0 0 117.388342 118.104962 z" /><desc class="value">93.56</desc><desc class="x centered">119.42803299692054</desc><desc class="y centered">95.15930741351795</desc></g><g class="slice"><path class="slice reactive tooltip-trigger" d="M123.921008 71.714976 A267.000000 267.000000 0 0 1 142.668271 55.785071 L159.001444 76.906564 A240.300000 240.300000 0 0 0 142.128907 91.243478 z" /><desc class="value">56.69</desc><desc class="x centered">141.75551671819127</desc><desc class="y centered">73.70728877815475</desc></g><g class="slice"><path class="slice reactive tooltip-trigger" d="M142.668271 55.785071 A267.000000 267.000000 0 0 1 177.979043 32.693289 L190.781139 56.123960 A240.300000 240.300000 0 0 0 159.001444 76.906564 z" /><desc class="value">97.29</desc><desc class="x centered">167.17348503953804</desc><desc class="y centered">54.713586765585404</desc></g><g class="slice"><path class="slice reactive tooltip-trigger" d="M177.979043 32.693289 A267.000000 267.000000 0 0 1 221.794135 13.626023 L230.214722 38.963420 A240.300000 240.300000 0 0 0 190.781139 56.123960 z" /><desc class="value">110.22</desc><desc class="x centered">204.7862220768714</desc><desc class="y centered">34.41863002697826</desc></g><g class="slice"><path class="slice reactive tooltip-trigger" d="M221.794135 13.626023 A267.000000 267.000000 0 0 1 267.846473 2.740074 L271.661826 29.166067 A240.300000 240.300000 0 0 0 230.214722 38.963420 z" /><desc class="value">109.15</desc><desc class="x centered">247.64972590411608</desc><desc class="y centered">20.152743558014777</desc></g><g class="slice"><path class="slice reactive tooltip-trigger" d="M267.846473 2.740074 A267.000000 267.000000 0 0 1 306.000000 0.000000 L306.000000 26.700000 A240.300000 240.300000 0 0 0 271.661826 29.166067 z" /><desc class="value">88.19</desc><desc class="x centered">287.8303985166252</desc><desc class="y centered">14.001604586243786</desc></g><g class="big_slice"><path class="slice reactive tooltip-trigger" d="M69.920342 311.838434 A240.300000 240.300000 0 0 1 306.000000 26.700000 L306.000000 267.000000 A0.000000 0.000000 0 0 0 306.000000 267.000000 z" /><desc class="value">1081.55</desc><desc class="x centered">213.45354840311234</desc><desc class="y centered">190.37639530259014</desc></g></g></g></g><g class="titles"><text class="title plot_title" x="400.0" y="26">วุฒิการศึกษา</text></g><g class="plot overlay" transform="translate(168, 46)"><g class="series serie-0 color-0" /><g class="series serie-1 color-1" /><g class="series serie-2 color-2" /><g class="series serie-3 color-3" /><g class="series serie-4 color-4" /><g class="series serie-5 color-5" /></g><g class="plot text-overlay" transform="translate(168, 46)"><g class="series serie-0 color-0" /><g class="series serie-1 color-1" /><g class="series serie-2 color-2" /><g class="series serie-3 color-3" /><g class="series serie-4 color-4" /><g class="series serie-5 color-5" /></g><g class="plot tooltip-overlay" transform="translate(168, 46)"><g class="tooltip" style="opacity: 0" transform="translate(0 0)"><rect class="tooltip-box" height="0" rx="0" ry="0" width="0" /><g class="text" /></g></g><g class="legends" transform="translate(10, 56)"><g class="legend reactive activate-serie" id="activate-serie-0"><rect class="color-0 reactive" height="12" width="12" x="0.0" y="1.0" /><text x="17.0" y="11.2">ประถมศึกษาหรือ…</text><title>ประถมศึกษาหรือต่ำกว่า</title></g><g class="legend reactive activate-serie" id="activate-serie-1"><rect class="color-1 reactive" height="12" width="12" x="0.0" y="22.0" /><text x="17.0" y="32.2">มัธยมศึกษาตอนต…</text><title>มัธยมศึกษาตอนต้น</title></g><g class="legend reactive activate-serie" id="activate-serie-2"><rect class="color-2 reactive" height="12" width="12" x="0.0" y="43.0" /><text x="17.0" y="53.2">มัธยมศึกษาตอนป…</text><title>มัธยมศึกษาตอนปลาย</title></g><g class="legend reactive activate-serie" id="activate-serie-3"><rect class="color-3 reactive" height="12" width="12" x="0.0" y="64.0" /><text x="17.0" y="74.2">อาชีวศึกษา</text></g><g class="legend reactive activate-serie" id="activate-serie-4"><rect class="color-4 reactive" height="12" width="12" x="0.0" y="85.0" /><text x="17.0" y="95.2">ประกาศนียบัตรว…</text><title>ประกาศนียบัตรวิชาชีพชั้นสูง</title></g><g class="legend reactive activate-serie" id="activate-serie-5"><rect class="color-5 reactive" height="12" width="12" x="0.0" y="106.0" /><text x="17.0" y="116.2">ปริญญาตรี</text></g></g><g class="legends" transform="translate(790, 56)" /></g></svg>