<?xml version='1.0' encoding='utf-8'?>
<svg xmlns:xlink="http://www.w3.org/1999/xlink" class="pygal-chart" id="chart-5d8c1a70-ed1e-4584-827e-3e9dcaf7f62c" viewBox="0 0 800 600" xmlns="http://www.w3.org/2000/svg"><!--Generated with pygal 2.3.0 (etree) ©Kozea 2012-2016 on 2016-12-01--><!--http://pygal.org--><!--http://github.com/Kozea/pygal--><defs><style type="text/css">#chart-5d8c1a70-ed1e-4584-827e-3e9dcaf7f62c{-webkit-user-select:none;-webkit-font-smoothing:antialiased;font-family:Consolas,"Liberation Mono",Menlo,Courier,monospace}#chart-5d8c1a70-ed1e-4584-827e-3e9dcaf7f62c .title{font-family:Consolas,"Liberation Mono",Menlo,Courier,monospace;font-size:16px}#chart-5d8c1a70-ed1e-4584-827e-3e9dcaf7f62c .legends .legend text{font-family:Consolas,"Liberation Mono",Menlo,Courier,monospace;font-size:14px}#chart-5d8c1a70-ed1e-4584-827e-3e9dcaf7f62c .axis text{font-family:Consolas,"Liberation Mono",Menlo,Courier,monospace;font-size:10px}#chart-5d8c1a70-ed1e-4584-827e-3e9dcaf7f62c .axis text.major{font-family:Consolas,"Liberation Mono",Menlo,Courier,monospace;font-size:10px}#chart-5d8c1a70-ed1e-4584-827e-3e9dcaf7f62c .text-overlay text.value{font-family:Consolas,"Liberation Mono",Menlo,Courier,monospace;font-size:16px}#chart-5d8c1a70-ed1e-4584-827e-3e9dcaf7f62c .text-overlay text.label{font-family:Consolas,"Liberation Mono",Menlo,Courier,monospace;font-size:10px}#chart-5d8c1a70-ed1e-4584-827e-3e9dcaf7f62c .tooltip{font-family:Consolas,"Liberation Mono",Menlo,Courier,monospace;font-size:14px}#chart-5d8c1a70-ed1e-4584-827e-3e9dcaf7f62c text.no_data{font-family:Consolas,"Liberation Mono",Menlo,Courier,monospace;font-size:64px}
#chart-5d8c1a70-ed1e-4584-827e-3e9dcaf7f62c{background-color:#f8f8f8}#chart-5d8c1a70-ed1e-4584-827e-3e9dcaf7f62c path,#chart-5d8c1a70-ed1e-4584-827e-3e9dcaf7f62c line,#chart-5d8c1a70-ed1e-4584-827e-3e9dcaf7f62c rect,#chart-5d8c1a70-ed1e-4584-827e-3e9dcaf7f62c circle{-webkit-transition:250ms ease-in;-moz-transition:250ms ease-in;transition:250ms ease-in}#chart-5d8c1a70-ed1e-4584-827e-3e9dcaf7f62c .graph &gt; .background{fill:#f8f8f8}#chart-5d8c1a70-ed1e-4584-827e-3e9dcaf7f62c .plot &gt; .background{fill:#ffffff}#chart-5d8c1a70-ed1e-4584-827e-3e9dcaf7f62c .graph{fill:#333}#chart-5d8c1a70-ed1e-4584-827e-3e9dcaf7f62c text.no_data{fill:#666}#chart-5d8c1a70-ed1e-4584-827e-3e9dcaf7f62c .title{fill:#666}#chart-5d8c1a70-ed1e-4584-827e-3e9dcaf7f62c .legends .legend text{fill:#333}#chart-5d8c1a70-ed1e-4584-827e-3e9dcaf7f62c .legends .legend:hover text{fill:#666}#chart-5d8c1a70-ed1e-4584-827e-3e9dcaf7f62c .axis .line{stroke:#666}#chart-5d8c1a70-ed1e-4584-827e-3e9dcaf7f62c .axis .guide.line{stroke:rgba(0,0,0,0.5)}#chart-5d8c1a70-ed1e-4584-827e-3e9dcaf7f62c .axis .major.line{stroke:#333}#chart-5d8c1a70-ed1e-4584-827e-3e9dcaf7f62c .axis text.major{fill:#666}#chart-5d8c1a70-ed1e-4584-827e-3e9dcaf7f62c .axis.y .guides:hover .guide.line,#chart-5d8c1a70-ed1e-4584-827e-3e9dcaf7f62c .line-graph .axis.x .guides:hover .guide.line,#chart-5d8c1a70-ed1e-4584-827e-3e9dcaf7f62c .stackedline-graph .axis.x .guides:hover .guide.line,#chart-5d8c1a70-ed1e-4584-827e-3e9dcaf7f62c .xy-graph .axis.x .guides:hover .guide.line{stroke:#666}#chart-5d8c1a70-ed1e-4584-827e-3e9dcaf7f62c .axis .guides:hover text{fill:#666}#chart-5d8c1a70-ed1e-4584-827e-3e9dcaf7f62c .reactive{fill-opacity:.5;stroke-opacity:.8}#chart-5d8c1a70-ed1e-4584-827e-3e9dcaf7f62c .ci{stroke:#333}#chart-5d8c1a70-ed1e-4584-827e-3e9dcaf7f62c .reactive.active,#chart-5d8c1a70-ed1e-4584-827e-3e9dcaf7f62c .active .reactive{fill-opacity:.9;stroke-opacity:.9;stroke-width:4}#chart-5d8c1a70-ed1e-4584-827e-3e9dcaf7f62c .ci .reactive.active{stroke-width:1.5}#chart-5d8c1a70-ed1e-4584-827e-3e9dcaf7f62c .series text{fill:#666}#chart-5d8c1a70-ed1e-4584-827e-3e9dcaf7f62c .tooltip rect{fill:#ffffff;stroke:#666;-webkit-transition:opacity 250ms ease-in;-moz-transition:opacity 250ms ease-in;transition:opacity 250ms ease-in}#chart-5d8c1a70-ed1e-4584-827e-3e9dcaf7f62c .tooltip .label{fill:#333}#chart-5d8c1a70-ed1e-4584-827e-3e9dcaf7f62c .tooltip .label{fill:#333}#chart-5d8c1a70-ed1e-4584-827e-3e9dcaf7f62c .tooltip .legend{font-size:.8em;fill:rgba(0,0,0,0.5)}#chart-5d8c1a70-ed1e-4584-827e-3e9dcaf7f62c .tooltip .x_label{font-size:.6em;fill:#666}#chart-5d8c1a70-ed1e-4584-827e-3e9dcaf7f62c .tooltip .xlink{font-size:.5em;text-decoration:underline}#chart-5d8c1a70-ed1e-4584-827e-3e9dcaf7f62c .tooltip .value{font-size:1.5em}#chart-5d8c1a70-ed1e-4584-827e-3e9dcaf7f62c .bound{font-size:.5em}#chart-5d8c1a70-ed1e-4584-827e-3e9dcaf7f62c .max-value{font-size:.75em;fill:rgba(0,0,0,0.5)}#chart-5d8c1a70-ed1e-4584-827e-3e9dcaf7f62c .map-element{fill:#ffffff;stroke:rgba(0,0,0,0.5) !important}#chart-5d8c1a70-ed1e-4584-827e-3e9dcaf7f62c .map-element .reactive{fill-opacity:inherit;stroke-opacity:inherit}#chart-5d8c1a70-ed1e-4584-827e-3e9dcaf7f62c .color-0,#chart-5d8c1a70-ed1e-4584-827e-3e9dcaf7f62c .color-0 a:visited{stroke:#fe9592;fill:#fe9592}#chart-5d8c1a70-ed1e-4584-827e-3e9dcaf7f62c .color-1,#chart-5d8c1a70-ed1e-4584-827e-3e9dcaf7f62c .color-1 a:visited{stroke:#534f4c;fill:#534f4c}#chart-5d8c1a70-ed1e-4584-827e-3e9dcaf7f62c .color-2,#chart-5d8c1a70-ed1e-4584-827e-3e9dcaf7f62c .color-2 a:visited{stroke:#3ac2c0;fill:#3ac2c0}#chart-5d8c1a70-ed1e-4584-827e-3e9dcaf7f62c .color-3,#chart-5d8c1a70-ed1e-4584-827e-3e9dcaf7f62c .color-3 a:visited{stroke:#a2a7a1;fill:#a2a7a1}#chart-5d8c1a70-ed1e-4584-827e-3e9dcaf7f62c .color-4,#chart-5d8c1a70-ed1e-4584-827e-3e9dcaf7f62c .color-4 a:visited{stroke:#fd4b46;fill:#fd4b46}#chart-5d8c1a70-ed1e-4584-827e-3e9dcaf7f62c .color-5,#chart-5d8c1a70-ed1e-4584-827e-3e9dcaf7f62c .color-5 a:visited{stroke:#7b7571;fill:#7b7571}#chart-5d8c1a70-ed1e-4584-827e-3e9dcaf7f62c .text-overlay .color-0 text{fill:black}#chart-5d8c1a70-ed1e-4584-827e-3e9dcaf7f62c .text-overlay .color-1 text{fill:black}#chart-5d8c1a70-ed1e-4584-827e-3e9dcaf7f62c .text-overlay .color-2 text{fill:black}#chart-5d8c1a70-ed1e-4584-827e-3e9dcaf7f62c .text-overlay .color-3 text{fill:black}#chart-5d8c1a70-ed1e-4584-827e-3e9dcaf7f62c .text-overlay .color-4 text{fill:black}#chart-5d8c1a70-ed1e-4584-827e-3e9dcaf7f62c .text-overlay .color-5 text{fill:black}
#chart-5d8c1a70-ed1e-4584-827e-3e9dcaf7f62c text.no_data{text-anchor:middle}#chart-5d8c1a70-ed1e-4584-827e-3e9dcaf7f62c .guide.line{fill:none}#chart-5d8c1a70-ed1e-4584-827e-3e9dcaf7f62c .centered{text-anchor:middle}#chart-5d8c1a70-ed1e-4584-827e-3e9dcaf7f62c .title{text-anchor:middle}#chart-5d8c1a70-ed1e-4584-827e-3e9dcaf7f62c .legends .legend text{fill-opacity:1}#chart-5d8c1a70-ed1e-4584-827e-3e9dcaf7f62c .axis.x text{text-anchor:middle}#chart-5d8c1a70-ed1e-4584-827e-3e9dcaf7f62c .axis.x:not(.web) text[transform]{text-anchor:start}#chart-5d8c1a70-ed1e-4584-827e-3e9dcaf7f62c .axis.x:not(.web) text[transform].backwards{text-anchor:end}#chart-5d8c1a70-ed1e-4584-827e-3e9dcaf7f62c .axis.y text{text-anchor:end}#chart-5d8c1a70-ed1e-4584-827e-3e9dcaf7f62c .axis.y text[transform].backwards{text-anchor:start}#chart-5d8c1a70-ed1e-4584-827e-3e9dcaf7f62c .axis.y2 text{text-anchor:start}#chart-5d8c1a70-ed1e-4584-827e-3e9dcaf7f62c .axis.y2 text[transform].backwards{text-anchor:end}#chart-5d8c1a70-ed1e-4584-827e-3e9dcaf7f62c .axis .guide.line{stroke-dasharray:4,4}#chart-5d8c1a70-ed1e-4584-827e-3e9dcaf7f62c .axis .major.guide.line{stroke-dasharray:6,6}#chart-5d8c1a70-ed1e-4584-827e-3e9dcaf7f62c .horizontal .axis.y .guide.line,#chart-5d8c1a70-ed1e-4584-827e-3e9dcaf7f62c .horizontal .axis.y2 .guide.line,#chart-5d8c1a70-ed1e-4584-827e-3e9dcaf7f62c .vertical .axis.x .guide.line{opacity:0}#chart-5d8c1a70-ed1e-4584-827e-3e9dcaf7f62c .horizontal .axis.always_show .guide.line,#chart-5d8c1a70-ed1e-4584-827e-3e9dcaf7f62c .vertical .axis.always_show .guide.line{opacity:1 !important}#chart-5d8c1a70-ed1e-4584-827e-3e9dcaf7f62c .axis.y .guides:hover .guide.line,#chart-5d8c1a70-ed1e-4584-827e-3e9dcaf7f62c .axis.y2 .guides:hover .guide.line,#chart-5d8c1a70-ed1e-4584-827e-3e9dcaf7f62c .axis.x .guides:hover .guide.line{opacity:1}#chart-5d8c1a70-ed1e-4584-827e-3e9dcaf7f62c .axis .guides:hover text{opacity:1}#chart-5d8c1a70-ed1e-4584-827e-3e9dcaf7f62c .nofill{fill:none}#chart-5d8c1a70-ed1e-4584-827e-3e9dcaf7f62c .subtle-fill{fill-opacity:.2}#chart-5d8c1a70-ed1e-4584-827e-3e9dcaf7f62c .dot{stroke-width:1px;fill-opacity:1}#chart-5d8c1a70-ed1e-4584-827e-3e9dcaf7f62c .dot.active{stroke-width:5px}#chart-5d8c1a70-ed1e-4584-827e-3e9dcaf7f62c .dot.negative{fill:transparent}#chart-5d8c1a70-ed1e-4584-827e-3e9dcaf7f62c text,#chart-5d8c1a70-ed1e-4584-827e-3e9dcaf7f62c tspan{stroke:none !important}#chart-5d8c1a70-ed1e-4584-827e-3e9dcaf7f62c .series text.active{opacity:1}#chart-5d8c1a70-ed1e-4584-827e-3e9dcaf7f62c .tooltip rect{fill-opacity:.95;stroke-width:.5}#chart-5d8c1a70-ed1e-4584-827e-3e9dcaf7f62c .tooltip text{fill-opacity:1}#chart-5d8c1a70-ed1e-4584-827e-3e9dcaf7f62c .showable{visibility:hidden}#chart-5d8c1a70-ed1e-4584-827e-3e9dcaf7f62c .showable.shown{visibility:visible}#chart-5d8c1a70-ed1e-4584-827e-3e9dcaf7f62c .gauge-background{fill:rgba(229,229,229,1);stroke:none}#chart-5d8c1a70-ed1e-4584-827e-3e9dcaf7f62c .bg-lines{stroke:#f8f8f8;stroke-width:2px}</style><script type="text/javascript">window.pygal = window.pygal || {};window.pygal.config = window.pygal.config || {};window.pygal.config['5d8c1a70-ed1e-4584-827e-3e9dcaf7f62c'] = {"secondary_range": null, "legend_at_bottom_columns": null, "interpolation_parameters": {}, "legend_box_size": 12, "margin": 20, "half_pie": false, "stroke": true, "classes": ["pygal-chart"], "rounded_bars": null, "style": {"no_data_font_family": "Consolas, \"Liberation Mono\", Menlo, Courier, monospace", "tooltip_font_size": 14, "major_guide_stroke_dasharray": "6,6", "foreground": "#333", "plot_background": "#ffffff", "ci_colors": [], "value_colors": [], "guide_stroke_dasharray": "4,4", "legend_font_size": 14, "value_font_family": "Consolas, \"Liberation Mono\", Menlo, Courier, monospace", "stroke_opacity_hover": ".9", "opacity_hover": ".9", "value_font_size": 16, "value_label_font_family": "Consolas, \"Liberation Mono\", Menlo, Courier, monospace", "value_background": "rgba(229, 229, 229, 1)", "transition": "250ms ease-in", "tooltip_font_family": "Consolas, \"Liberation Mono\", Menlo, Courier, monospace", "label_font_size": 10, "title_font_size": 16, "major_label_font_size": 10, "foreground_strong": "#666", "label_font_family": "Consolas, \"Liberation Mono\", Menlo, Courier, monospace", "major_label_font_family": "Consolas, \"Liberation Mono\", Menlo, Courier, monospace", "title_font_family": "Consolas, \"Liberation Mono\", Menlo, Courier, monospace", "font_family": "Consolas, \"Liberation Mono\", Menlo, Courier, monospace", "no_data_font_size": 64, "legend_font_family": "Consolas, \"Liberation Mono\", Menlo, Courier, monospace", "opacity": ".5", "colors": ["#fe9592", "#534f4c", "#3ac2c0", "#a2a7a1", "#fd4b46", "#7b7571", "#73d5d4", "#c9ccc9", "#ffdfde", "#2e9b99"], "foreground_subtle": "rgba(0, 0 , 0, 0.5)", "stroke_opacity": ".8", "background": "#f8f8f8", "value_label_font_size": 10}, "x_label_rotation": 0, "stack_from_top": false, "truncate_legend": null, "strict": false, "print_labels": false, "margin_left": null, "show_minor_y_labels": true, "max_scale": 16, "js": ["//kozea.github.io/pygal.js/2.0.x/pygal-tooltips.min.js"], "show_only_major_dots": false, "disable_xml_declaration": false, "y_title": null, "title": "\u0e27\u0e38\u0e12\u0e34\u0e01\u0e32\u0e23\u0e28\u0e36\u0e01\u0e29\u0e32", "print_values_position": "center", "no_prefix": false, "no_data_text": "No data", "legend_at_bottom": false, "missing_value_fill_truncation": "x", "margin_top": null, "legends": ["\u0e1b\u0e23\u0e30\u0e16\u0e21\u0e28\u0e36\u0e01\u0e29\u0e32\u0e2b\u0e23\u0e37\u0e2d\u0e15\u0e48\u0e33\u0e01\u0e27\u0e48\u0e32", "\u0e21\u0e31\u0e18\u0e22\u0e21\u0e28\u0e36\u0e01\u0e29\u0e32\u0e15\u0e2d\u0e19\u0e15\u0e49\u0e19", "\u0e21\u0e31\u0e18\u0e22\u0e21\u0e28\u0e36\u0e01\u0e29\u0e32\u0e15\u0e2d\u0e19\u0e1b\u0e25\u0e32\u0e22", "\u0e2d\u0e32\u0e0a\u0e35\u0e27\u0e28\u0e36\u0e01\u0e29\u0e32", "\u0e1b\u0e23\u0e30\u0e01\u0e32\u0e28\u0e19\u0e35\u0e22\u0e1a\u0e31\u0e15\u0e23\u0e27\u0e34\u0e0a\u0e32\u0e0a\u0e35\u0e1e\u0e0a\u0e31\u0e49\u0e19\u0e2a\u0e39\u0e07", "\u0e1b\u0e23\u0e34\u0e0d\u0e0d\u0e32\u0e15\u0e23\u0e35"], "margin_right": null, "y_labels": null, "min_scale": 4, "fill": true, "xrange": null, "inverse_y_axis": false, "show_x_labels": true, "print_zeroes": true, "stroke_style": null, "include_x_axis": false, "zero": 0, "box_mode": "extremes", "tooltip_fancy_mode": true, "force_uri_protocol": "https", "show_legend": true, "y_labels_major_count": null, "css": ["file://style.css", "file://graph.css"], "width": 800, "show_minor_x_labels": true, "explicit_size": false, "allow_interruptions": false, "x_labels_major_count": null, "interpolation_precision": 250, "show_dots": true, "x_labels": ["2556/1", "2556/2", "2556/3", "2556/4", "2557/1", "2557/2", "2557/3", "2557/4", "2558/1", "2558/2", "2558/3", "2558/4"], "logarithmic": false, "dynamic_print_values": false, "formatter": null, "spacing": 10, "show_y_labels": true, "show_x_guides": false, "inner_radius": 0, "dots_size": 2.5, "print_values": false, "height": 600, "show_y_guides": true, "truncate_label": null, "range": null, "margin_bottom": null, "x_title": null, "y_labels_major_every": null, "x_labels_major_every": null, "interpolate": "cubic", "y_label_rotation": 0, "defs": [], "pretty_print": false, "y_labels_major": null, "x_labels_major": null, "tooltip_border_radius": 0, "order_min": null}</script><script type="text/javascript" xlink:href="https://kozea.github.io/pygal.js/2.0.x/pygal-tooltips.min.js" /></defs><title>วุฒิการศึกษา</title><g class="graph pie-graph vertical"><rect class="background" height="600" width="800" x="0" y="0" /><g class="plot" transform="translate(168, 46)"><rect class="background" height="534" width="612.0" x="0" y="0" /><g class="series serie-0 color-0"><g class="slices"><g class="slice"><path class="slice reactive tooltip-trigger" d="M306.000000 0.000000 A267.000000 267.000000 0 0 1 335.181741 1.599499 L332.263567 28.139549 A240.300000 240.300000 0 0 0 306.000000 26.700000 z" /><desc class="value">66.67</desc><desc class="x centered">319.88213315732105</desc><desc class="y centered">13.730165872438704</desc></g><g class="slice"><path class="slice reactive tooltip-trigger" d="M335.181741 1.599499 A267.000000 267.000000 0 0 1 363.855439 6.343620 L358.069895 32.409258 A240.300000 240.300000 0 0 0 332.263567 28.139549 z" /><desc class="value">66.3</desc><desc class="x centered">347.4040292081996</desc><desc class="y centered">16.752065212664405</desc></g><g class="slice"><path class="slice reactive tooltip-trigger" d="M363.855439 6.343620 A267.000000 267.000000 0 0 1 388.004909 12.905146 L379.804419 38.314631 A240.300000 240.300000 0 0 0 358.069895 32.409258 z" /><desc class="value">57.08</desc><desc class="x centered">372.5067355852629</desc><desc class="y centered">22.224231955465143</desc></g><g class="slice"><path class="slice reactive tooltip-trigger" d="M388.004909 12.905146 A267.000000 267.000000 0 0 1 410.926067 21.481120 L400.433461 46.033008 A240.300000 240.300000 0 0 0 379.804419 38.314631 z" /><desc class="value">55.82</desc><desc class="x centered">394.88560835648104</desc><desc class="y centered">29.43385946836139</desc></g><g class="slice"><path class="slice reactive tooltip-trigger" d="M410.926067 21.481120 A267.000000 267.000000 0 0 1 435.139122 33.307708 L422.225210 56.676938 A240.300000 240.300000 0 0 0 400.433461 46.033008 z" /><desc class="value">61.4675</desc><desc class="x centered">417.3227951740788</desc><desc class="y centered">39.084318717140235</desc></g><g class="slice"><path class="slice reactive tooltip-trigger" d="M435.139122 33.307708 A267.000000 267.000000 0 0 1 469.046966 55.565171 L452.742269 76.708654 A240.300000 240.300000 0 0 0 422.225210 56.676938 z" /><desc class="value">92.57</desc><desc class="x centered">445.1904850983507</desc><desc class="y centered">54.95205410547874</desc></g><g class="slice"><path class="slice reactive tooltip-trigger" d="M469.046966 55.565171 A267.000000 267.000000 0 0 1 494.403535 77.809334 L475.563181 96.728401 A240.300000 240.300000 0 0 0 452.742269 76.708654 z" /><desc class="value">76.96</desc><desc class="x centered">473.27302710951733</desc><desc class="y centered">76.32211218492407</desc></g><g class="slice"><path class="slice reactive tooltip-trigger" d="M494.403535 77.809334 A267.000000 267.000000 0 0 1 515.209164 101.106885 L494.288248 117.696196 A240.300000 240.300000 0 0 0 475.563181 96.728401 z" /><desc class="value">71.26</desc><desc class="x centered">495.1899624404978</desc><desc class="y centered">98.04592158884407</desc></g><g class="slice"><path class="slice reactive tooltip-trigger" d="M515.209164 101.106885 A267.000000 267.000000 0 0 1 548.098195 154.405755 L523.888375 165.665179 A240.300000 240.300000 0 0 0 494.288248 117.696196 z" /><desc class="value">143.13</desc><desc class="x centered">521.860770773731</desc><desc class="y centered">133.799211184878</desc></g><g class="slice"><path class="slice reactive tooltip-trigger" d="M548.098195 154.405755 A267.000000 267.000000 0 0 1 562.773627 193.813224 L537.096265 201.131901 A240.300000 240.300000 0 0 0 523.888375 165.665179 z" /><desc class="value">95.98</desc><desc class="x centered">543.7022846011995</desc><desc class="y centered">178.47911887373482</desc></g><g class="slice"><path class="slice reactive tooltip-trigger" d="M562.773627 193.813224 A267.000000 267.000000 0 0 1 570.662450 231.746810 L544.196205 235.272129 A240.300000 240.300000 0 0 0 537.096265 201.131901 z" /><desc class="value">88.42</desc><desc class="x centered">554.3366779720567</desc><desc class="y centered">215.3548949676448</desc></g><g class="slice"><path class="slice reactive tooltip-trigger" d="M570.662450 231.746810 A267.000000 267.000000 0 0 1 572.945456 261.603362 L546.250910 262.143026 A240.300000 240.300000 0 0 0 544.196205 235.272129 z" /><desc class="value">68.31</desc><desc class="x centered">558.9116878428733</desc><desc class="y centered">247.66090352500984</desc></g><g class="big_slice"><path class="slice reactive tooltip-trigger" d="M306.000000 26.700000 A240.300000 240.300000 0 0 1 546.250910 262.143026 L306.000000 267.000000 A0.000000 0.000000 0 0 0 306.000000 267.000000 z" /><desc class="value">943.9675</desc><desc class="x centered">390.09589696722287</desc><desc class="y centered">181.18681562091854</desc></g></g></g><g class="series serie-1 color-1"><g class="slices"><g class="slice"><path class="slice reactive tooltip-trigger" d="M572.945456 261.603362 A267.000000 267.000000 0 0 1 571.859689 291.650070 L545.273720 289.185063 A240.300000 240.300000 0 0 0 546.250910 262.143026 z" /><desc class="value">68.59</desc><desc class="x centered">559.4845528550927</desc><desc class="y centered">276.15991069027086</desc></g><g class="slice"><path class="slice reactive tooltip-trigger" d="M571.859689 291.650070 A267.000000 267.000000 0 0 1 568.669482 314.893037 L542.402534 310.103734 A240.300000 240.300000 0 0 0 545.273720 289.185063 z" /><desc class="value">53.51</desc><desc class="x centered">557.2939993637349</desc><desc class="y centered">301.49127982228634</desc></g><g class="slice"><path class="slice reactive tooltip-trigger" d="M568.669482 314.893037 A267.000000 267.000000 0 0 1 563.339327 338.172121 L537.605394 331.054909 A240.300000 240.300000 0 0 0 542.402534 310.103734 z" /><desc class="value">54.47</desc><desc class="x centered">553.2515659812452</desc><desc class="y centered">323.612592413896</desc></g><g class="slice"><path class="slice reactive tooltip-trigger" d="M563.339327 338.172121 A267.000000 267.000000 0 0 1 555.164618 362.947866 L530.248156 353.353080 A240.300000 240.300000 0 0 0 537.605394 331.054909 z" /><desc class="value">59.51</desc><desc class="x centered">546.8770308281001</desc><desc class="y centered">346.47690557286757</desc></g><g class="slice"><path class="slice reactive tooltip-trigger" d="M555.164618 362.947866 A267.000000 267.000000 0 0 1 544.707253 386.615414 L520.836528 374.653872 A240.300000 240.300000 0 0 0 530.248156 353.353080 z" /><desc class="value">59.02</desc><desc class="x centered">538.0116656801506</desc><desc class="y centered">369.5129722928862</desc></g><g class="slice"><path class="slice reactive tooltip-trigger" d="M544.707253 386.615414 A267.000000 267.000000 0 0 1 529.354611 413.293260 L507.019150 398.663934 A240.300000 240.300000 0 0 0 520.836528 374.653872 z" /><desc class="value">70.22</desc><desc class="x centered">525.8448990556419</desc><desc class="y centered">393.51696668516297</desc></g><g class="slice"><path class="slice reactive tooltip-trigger" d="M529.354611 413.293260 A267.000000 267.000000 0 0 1 508.337069 441.208813 L488.103362 423.787932 A240.300000 240.300000 0 0 0 507.019150 398.663934 z" /><desc class="value">79.73</desc><desc class="x centered">508.63785291263343</desc><desc class="y centered">419.56547141131887</desc></g><g class="slice"><path class="slice reactive tooltip-trigger" d="M508.337069 441.208813 A267.000000 267.000000 0 0 1 482.433077 467.400522 L464.789770 447.360470 A240.300000 240.300000 0 0 0 488.103362 423.787932 z" /><desc class="value">84.06</desc><desc class="x centered">486.34545226754767</desc><desc class="y centered">445.3643471841099</desc></g><g class="slice"><path class="slice reactive tooltip-trigger" d="M482.433077 467.400522 A267.000000 267.000000 0 0 1 462.675803 483.198272 L447.008223 461.578445 A240.300000 240.300000 0 0 0 464.789770 447.360470 z" /><desc class="value">57.7</desc><desc class="x centered">464.40455582409714</desc><desc class="y centered">465.1068378279016</desc></g><g class="slice"><path class="slice reactive tooltip-trigger" d="M462.675803 483.198272 A267.000000 267.000000 0 0 1 435.715970 500.372593 L422.744373 477.035334 A240.300000 240.300000 0 0 0 447.008223 461.578445 z" /><desc class="value">72.9275</desc><desc class="x centered">442.2804756740285</desc><desc class="y centered">480.9297885991115</desc></g><g class="slice"><path class="slice reactive tooltip-trigger" d="M435.715970 500.372593 A267.000000 267.000000 0 0 1 404.854064 515.025955 L394.968657 490.223359 A240.300000 240.300000 0 0 0 422.744373 477.035334 z" /><desc class="value">77.95</desc><desc class="x centered">414.7936468893098</desc><desc class="y centered">496.1337271038993</desc></g><g class="slice"><path class="slice reactive tooltip-trigger" d="M404.854064 515.025955 A267.000000 267.000000 0 0 1 383.707455 522.441875 L375.936709 496.897687 A240.300000 240.300000 0 0 0 394.968657 490.223359 z" /><desc class="value">51.11</desc><desc class="x centered">389.9406658075334</desc><desc class="y centered">506.35807302823105</desc></g><g class="big_slice"><path class="slice reactive tooltip-trigger" d="M546.250910 262.143026 A240.300000 240.300000 0 0 1 375.936709 496.897687 L306.000000 267.000000 A0.000000 0.000000 0 0 0 306.000000 267.000000 z" /><desc class="value">788.7975</desc><desc class="x centered">403.25164215209566</desc><desc class="y centered">337.55593949995097</desc></g></g></g><g class="series serie-2 color-2"><g class="slices"><g class="slice"><path class="slice reactive tooltip-trigger" d="M383.707455 522.441875 A267.000000 267.000000 0 0 1 365.357846 527.318355 L359.422061 501.286520 A240.300000 240.300000 0 0 0 375.936709 496.897687 z" /><desc class="value">43.3</desc><desc class="x centered">371.1472096234837</desc><desc class="y centered">512.141109523217</desc></g><g class="slice"><path class="slice reactive tooltip-trigger" d="M365.357846 527.318355 A267.000000 267.000000 0 0 1 349.267829 530.470862 L344.941046 504.123776 A240.300000 240.300000 0 0 0 359.422061 501.286520 z" /><desc class="value">37.39</desc><desc class="x centered">354.77018954338445</desc><desc class="y centered">515.9172374744312</desc></g><g class="slice"><path class="slice reactive tooltip-trigger" d="M349.267829 530.470862 A267.000000 267.000000 0 0 1 329.731475 532.943259 L327.358327 506.348933 A240.300000 240.300000 0 0 0 344.941046 504.123776 z" /><desc class="value">44.91</desc><desc class="x centered">337.84633029933013</desc><desc class="y centered">518.6428694528537</desc></g><g class="slice"><path class="slice reactive tooltip-trigger" d="M329.731475 532.943259 A267.000000 267.000000 0 0 1 314.919613 533.850971 L314.027652 507.165874 A240.300000 240.300000 0 0 0 327.358327 506.348933 z" /><desc class="value">33.84</desc><desc class="x centered">321.51525866714667</desc><desc class="y centered">520.1750367798759</desc></g><g class="slice"><path class="slice reactive tooltip-trigger" d="M314.919613 533.850971 A267.000000 267.000000 0 0 1 297.440926 533.862778 L298.296833 507.176500 A240.300000 240.300000 0 0 0 314.027652 507.165874 z" /><desc class="value">39.86</desc><desc class="x centered">306.1713478545658</desc><desc class="y centered">520.6499421247968</desc></g><g class="slice"><path class="slice reactive tooltip-trigger" d="M297.440926 533.862778 A267.000000 267.000000 0 0 1 275.559233 532.259043 L278.603310 505.733138 A240.300000 240.300000 0 0 0 298.296833 507.176500 z" /><desc class="value">50.04</desc><desc class="x centered">287.4594195898171</desc><desc class="y centered">519.9714793767344</desc></g><g class="slice"><path class="slice reactive tooltip-trigger" d="M275.559233 532.259043 A267.000000 267.000000 0 0 1 252.421423 528.568989 L257.779281 502.412090 A240.300000 240.300000 0 0 0 278.603310 505.733138 z" /><desc class="value">53.44</desc><desc class="x centered">266.05234005651386</desc><desc class="y centered">517.4845443635986</desc></g><g class="slice"><path class="slice reactive tooltip-trigger" d="M252.421423 528.568989 A267.000000 267.000000 0 0 1 234.099253 524.136700 L241.289327 498.423030 A240.300000 240.300000 0 0 0 257.779281 502.412090 z" /><desc class="value">42.99</desc><desc class="x centered">246.36014921575418</desc><desc class="y centered">513.538862450594</desc></g><g class="slice"><path class="slice reactive tooltip-trigger" d="M234.099253 524.136700 A267.000000 267.000000 0 0 1 222.473650 520.598795 L230.826285 495.238915 A240.300000 240.300000 0 0 0 241.289327 498.423030 z" /><desc class="value">27.71</desc><desc class="x centered">232.15300487092188</desc><desc class="y centered">509.6622010334653</desc></g><g class="slice"><path class="slice reactive tooltip-trigger" d="M222.473650 520.598795 A267.000000 267.000000 0 0 1 204.563273 513.980952 L214.706946 489.282856 A240.300000 240.300000 0 0 0 230.826285 495.238915 z" /><desc class="value">43.545</desc><desc class="x centered">218.0863206533241</desc><desc class="y centered">504.927525695809</desc></g><g class="slice"><path class="slice reactive tooltip-trigger" d="M204.563273 513.980952 A267.000000 267.000000 0 0 1 181.920519 503.417602 L194.328467 479.775841 A240.300000 240.300000 0 0 0 214.706946 489.282856 z" /><desc class="value">56.99</desc><desc class="x centered">198.76235158960483</desc><desc class="y centered">496.86606809924876</desc></g><g class="slice"><path class="slice reactive tooltip-trigger" d="M181.920519 503.417602 A267.000000 267.000000 0 0 1 160.787321 491.058648 L175.308589 468.652784 A240.300000 240.300000 0 0 0 194.328467 479.775841 z" /><desc class="value">55.84</desc><desc class="x centered">177.9515837331721</desc><desc class="y centered">485.95644679149586</desc></g><g class="big_slice"><path class="slice reactive tooltip-trigger" d="M375.936709 496.897687 A240.300000 240.300000 0 0 1 175.308589 468.652784 L306.000000 267.000000 A0.000000 0.000000 0 0 0 306.000000 267.000000 z" /><desc class="value">529.855</desc><desc class="x centered">289.25017096035697</desc><desc class="y centered">385.976744480351</desc></g></g></g><g class="series serie-3 color-3"><g class="slices"><g class="slice"><path class="slice reactive tooltip-trigger" d="M160.787321 491.058648 A267.000000 267.000000 0 0 1 156.788221 488.415548 L171.709399 466.273993 A240.300000 240.300000 0 0 0 175.308589 468.652784 z" /><desc class="value">10.93</desc><desc class="x centered">166.14274720352668</desc><desc class="y centered">478.60876952580054</desc></g><g class="slice"><path class="slice reactive tooltip-trigger" d="M156.788221 488.415548 A267.000000 267.000000 0 0 1 153.452126 486.130432 L168.706913 464.217389 A240.300000 240.300000 0 0 0 171.709399 466.273993 z" /><desc class="value">9.22</desc><desc class="x centered">162.66005487941507</desc><desc class="y centered">476.2653402568799</desc></g><g class="slice"><path class="slice reactive tooltip-trigger" d="M153.452126 486.130432 A267.000000 267.000000 0 0 1 146.154026 480.865062 L162.138624 459.478556 A240.300000 240.300000 0 0 0 168.706913 464.217389 z" /><desc class="value">20.52</desc><desc class="x centered">157.59184623948474</desc><desc class="y centered">472.7020719326747</desc></g><g class="slice"><path class="slice reactive tooltip-trigger" d="M146.154026 480.865062 A267.000000 267.000000 0 0 1 140.709606 476.685683 L157.238645 455.717115 A240.300000 240.300000 0 0 0 162.138624 459.478556 z" /><desc class="value">15.65</desc><desc class="x centered">151.54746670111763</desc><desc class="y centered">468.20322427227063</desc></g><g class="slice"><path class="slice reactive tooltip-trigger" d="M140.709606 476.685683 A267.000000 267.000000 0 0 1 135.904606 472.807086 L152.914145 452.226378 A240.300000 240.300000 0 0 0 157.238645 455.717115 z" /><desc class="value">14.08</desc><desc class="x centered">146.68109802454</desc><desc class="y centered">464.3722624213792</desc></g><g class="slice"><path class="slice reactive tooltip-trigger" d="M135.904606 472.807086 A267.000000 267.000000 0 0 1 129.759576 467.569970 L147.383618 447.512973 A240.300000 240.300000 0 0 0 152.914145 452.226378 z" /><desc class="value">18.41</desc><desc class="x centered">141.47167898974908</desc><desc class="y centered">460.0511696041954</desc></g><g class="slice"><path class="slice reactive tooltip-trigger" d="M129.759576 467.569970 A267.000000 267.000000 0 0 1 123.301820 461.705868 L141.571638 442.235281 A240.300000 240.300000 0 0 0 147.383618 447.512973 z" /><desc class="value">19.89</desc><desc class="x centered">135.48141118892804</desc><desc class="y centered">454.7810783063101</desc></g><g class="slice"><path class="slice reactive tooltip-trigger" d="M123.301820 461.705868 A267.000000 267.000000 0 0 1 119.157822 457.732798 L137.842039 438.659519 A240.300000 240.300000 0 0 0 141.571638 442.235281 z" /><desc class="value">13.09</desc><desc class="x centered">130.4581850402236</desc><desc class="y centered">450.093947744396</desc></g><g class="slice"><path class="slice reactive tooltip-trigger" d="M119.157822 457.732798 A267.000000 267.000000 0 0 1 115.130869 453.702905 L134.217782 435.032615 A240.300000 240.300000 0 0 0 137.842039 438.659519 z" /><desc class="value">12.99</desc><desc class="x centered">126.57691668546605</desc><desc class="y centered">446.29216289036674</desc></g><g class="slice"><path class="slice reactive tooltip-trigger" d="M115.130869 453.702905 A267.000000 267.000000 0 0 1 110.262091 448.592045 L129.835882 430.432841 A240.300000 240.300000 0 0 0 134.217782 435.032615 z" /><desc class="value">16.095</desc><desc class="x centered">122.3456099322334</desc><desc class="y centered">441.95538719581236</desc></g><g class="slice"><path class="slice reactive tooltip-trigger" d="M110.262091 448.592045 A267.000000 267.000000 0 0 1 105.647486 443.487592 L125.682737 425.838832 A240.300000 240.300000 0 0 0 129.835882 430.432841 z" /><desc class="value">15.69</desc><desc class="x centered">117.84142634844807</desc><desc class="y centered">437.10195078661945</desc></g><g class="slice"><path class="slice reactive tooltip-trigger" d="M105.647486 443.487592 A267.000000 267.000000 0 0 1 100.927028 437.979753 L121.434325 420.881778 A240.300000 240.300000 0 0 0 125.682737 425.838832 z" /><desc class="value">16.54</desc><desc class="x centered">113.40512350438044</desc><desc class="y centered">432.0622187165708</desc></g><g class="big_slice"><path class="slice reactive tooltip-trigger" d="M175.308589 468.652784 A240.300000 240.300000 0 0 1 121.434325 420.881778 L306.000000 267.000000 A0.000000 0.000000 0 0 0 306.000000 267.000000 z" /><desc class="value">183.105</desc><desc class="x centered">226.28601936572113</desc><desc class="y centered">356.8982969329109</desc></g></g></g><g class="series serie-4 color-4"><g class="slices"><g class="slice"><path class="slice reactive tooltip-trigger" d="M100.927028 437.979753 A267.000000 267.000000 0 0 1 95.098431 430.736154 L116.188587 414.362538 A240.300000 240.300000 0 0 0 121.434325 420.881778 z" /><desc class="value">21.2</desc><desc class="x centered">108.38213735346602</desc><desc class="y centered">426.0141593161302</desc></g><g class="slice"><path class="slice reactive tooltip-trigger" d="M95.098431 430.736154 A267.000000 267.000000 0 0 1 85.061221 416.916830 L107.155099 401.925147 A240.300000 240.300000 0 0 0 116.188587 414.362538 z" /><desc class="value">38.95</desc><desc class="x centered">100.7708310891054</desc><desc class="y centered">416.06143273209034</desc></g><g class="slice"><path class="slice reactive tooltip-trigger" d="M85.061221 416.916830 A267.000000 267.000000 0 0 1 77.057627 404.384096 L99.951864 390.645686 A240.300000 240.300000 0 0 0 107.155099 401.925147 z" /><desc class="value">33.91</desc><desc class="x centered">92.22354899400605</desc><desc class="y centered">403.5208830006672</desc></g><g class="slice"><path class="slice reactive tooltip-trigger" d="M77.057627 404.384096 A267.000000 267.000000 0 0 1 71.782916 395.184857 L95.204625 382.366372 A240.300000 240.300000 0 0 0 99.951864 390.645686 z" /><desc class="value">24.18</desc><desc class="x centered">85.95586746338509</desc><desc class="y centered">393.17013210823177</desc></g><g class="slice"><path class="slice reactive tooltip-trigger" d="M71.782916 395.184857 A267.000000 267.000000 0 0 1 65.837276 383.665616 L89.853548 371.999054 A240.300000 240.300000 0 0 0 95.204625 382.366372 z" /><desc class="value">29.56</desc><desc class="x centered">80.60316775508551</desc><desc class="y centered">383.33825902925435</desc></g><g class="slice"><path class="slice reactive tooltip-trigger" d="M65.837276 383.665616 A267.000000 267.000000 0 0 1 61.078698 373.313480 L85.570828 362.682132 A240.300000 240.300000 0 0 0 89.853548 371.999054 z" /><desc class="value">25.98</desc><desc class="x centered">75.53262414447337</desc><desc class="y centered">372.93918616955403</desc></g><g class="slice"><path class="slice reactive tooltip-trigger" d="M61.078698 373.313480 A267.000000 267.000000 0 0 1 55.938736 360.586134 L80.944863 351.227520 A240.300000 240.300000 0 0 0 85.570828 362.682132 z" /><desc class="value">31.3</desc><desc class="x centered">70.80557126582781</desc><desc class="y centered">361.98369961423066</desc></g><g class="slice"><path class="slice reactive tooltip-trigger" d="M55.938736 360.586134 A267.000000 267.000000 0 0 1 52.767975 351.631798 L78.091177 343.168619 A240.300000 240.300000 0 0 0 80.944863 351.227520 z" /><desc class="value">21.66</desc><desc class="x centered">66.89785432329475</desc><desc class="y centered">351.6669146290074</desc></g><g class="slice"><path class="slice reactive tooltip-trigger" d="M52.767975 351.631798 A267.000000 267.000000 0 0 1 50.581511 344.784290 L76.123360 337.005861 A240.300000 240.300000 0 0 0 78.091177 343.168619 z" /><desc class="value">16.39</desc><desc class="x centered">64.36911366469042</desc><desc class="y centered">344.15463219284186</desc></g><g class="slice"><path class="slice reactive tooltip-trigger" d="M50.581511 344.784290 A267.000000 267.000000 0 0 1 47.732900 334.728171 L73.559610 327.955354 A240.300000 240.300000 0 0 0 76.123360 337.005861 z" /><desc class="value">23.8325</desc><desc class="x centered">61.95259512072326</desc><desc class="y centered">336.1316618611934</desc></g><g class="slice"><path class="slice reactive tooltip-trigger" d="M47.732900 334.728171 A267.000000 267.000000 0 0 1 45.173873 324.085302 L71.256486 318.376772 A240.300000 240.300000 0 0 0 73.559610 327.955354 z" /><desc class="value">24.96</desc><desc class="x centered">59.37889835687298</desc><desc class="y centered">326.29885938473365</desc></g><g class="slice"><path class="slice reactive tooltip-trigger" d="M45.173873 324.085302 A267.000000 267.000000 0 0 1 42.389852 309.410961 L68.750866 305.169865 A240.300000 240.300000 0 0 0 71.256486 318.376772 z" /><desc class="value">34.06</desc><desc class="x centered">56.795269708657514</desc><desc class="y centered">314.2792227137803</desc></g><g class="big_slice"><path class="slice reactive tooltip-trigger" d="M121.434325 420.881778 A240.300000 240.300000 0 0 1 68.750866 305.169865 L306.000000 267.000000 A0.000000 0.000000 0 0 0 306.000000 267.000000 z" /><desc class="value">325.9825</desc><desc class="x centered">196.65050878476058</desc><desc class="y centered">316.7866575597145</desc></g></g></g><g class="series serie-5 color-5"><g class="slices"><g class="slice"><path class="slice reactive tooltip-trigger" d="M42.389852 309.410961 A267.000000 267.000000 0 0 1 39.269635 278.996341 L65.942671 277.796707 A240.300000 240.300000 0 0 0 68.750866 305.169865 z" /><desc class="value">69.75</desc><desc class="x centered">53.67433543890587</desc><desc class="y centered">292.88593254650493</desc></g><g class="slice"><path class="slice reactive tooltip-trigger" d="M39.269635 278.996341 A267.000000 267.000000 0 0 1 40.269439 240.994826 L66.842495 243.595344 A240.300000 240.300000 0 0 0 65.942671 277.796707 z" /><desc class="value">86.75</desc><desc class="x centered">52.437742069097226</desc><desc class="y centered">260.32887918095247</desc></g><g class="slice"><path class="slice reactive tooltip-trigger" d="M40.269439 240.994826 A267.000000 267.000000 0 0 1 47.510280 200.126502 L73.359252 206.813852 A240.300000 240.300000 0 0 0 66.842495 243.595344 z" /><desc class="value">94.73</desc><desc class="x centered">56.23981345080381</desc><desc class="y centered">222.74876595041982</desc></g><g class="slice"><path class="slice reactive tooltip-trigger" d="M47.510280 200.126502 A267.000000 267.000000 0 0 1 56.401977 172.185301 L81.361780 181.666771 A240.300000 240.300000 0 0 0 73.359252 206.813852 z" /><desc class="value">66.89</desc><desc class="x centered">64.29366324037466</desc><desc class="y centered">190.0820614535036</desc></g><g class="slice"><path class="slice reactive tooltip-trigger" d="M56.401977 172.185301 A267.000000 267.000000 0 0 1 70.879984 140.478943 L94.391985 153.131049 A240.300000 240.300000 0 0 0 81.361780 181.666771 z" /><desc class="value">79.53</desc><desc class="x centered">75.26688815939207</desc><desc class="y centered">161.64083523323887</desc></g><g class="slice"><path class="slice reactive tooltip-trigger" d="M70.879984 140.478943 A267.000000 267.000000 0 0 1 90.506329 109.356486 L112.055696 125.120837 A240.300000 240.300000 0 0 0 94.391985 153.131049 z" /><desc class="value">83.96</desc><desc class="x centered">91.44859239251056</desc><desc class="y centered">131.7002734901326</desc></g><g class="slice"><path class="slice reactive tooltip-trigger" d="M90.506329 109.356486 A267.000000 267.000000 0 0 1 126.969514 68.916470 L144.872562 88.724823 A240.300000 240.300000 0 0 0 112.055696 125.120837 z" /><desc class="value">124.37</desc><desc class="x centered">117.6191044386272</desc><desc class="y centered">97.14429451003076</desc></g><g class="slice"><path class="slice reactive tooltip-trigger" d="M126.969514 68.916470 A267.000000 267.000000 0 0 1 159.402131 43.845200 L174.061918 66.160680 A240.300000 240.300000 0 0 0 144.872562 88.724823 z" /><desc class="value">93.56</desc><desc class="x centered">150.8687562129986</desc><desc class="y centered">66.3196080801666</desc></g><g class="slice"><path class="slice reactive tooltip-trigger" d="M159.402131 43.845200 A267.000000 267.000000 0 0 1 180.787499 31.180515 L193.308749 54.762463 A240.300000 240.300000 0 0 0 174.061918 66.160680 z" /><desc class="value">56.69</desc><desc class="x centered">176.7500021078576</desc><desc class="y centered">48.750691765400575</desc></g><g class="slice"><path class="slice reactive tooltip-trigger" d="M180.787499 31.180515 A267.000000 267.000000 0 0 1 216.742323 15.361237 L225.668091 40.525113 A240.300000 240.300000 0 0 0 193.308749 54.762463 z" /><desc class="value">89.645</desc><desc class="x centered">203.84991978175208</desc><desc class="y centered">34.82833159188971</desc></g><g class="slice"><path class="slice reactive tooltip-trigger" d="M216.742323 15.361237 A267.000000 267.000000 0 0 1 257.923331 4.364066 L262.730998 30.627659 A240.300000 240.300000 0 0 0 225.668091 40.525113 z" /><desc class="value">97.29</desc><desc class="x centered">240.55737538982459</desc><desc class="y centered">21.937588798013195</desc></g><g class="slice"><path class="slice reactive tooltip-trigger" d="M257.923331 4.364066 A267.000000 267.000000 0 0 1 306.000000 0.000000 L306.000000 26.700000 A240.300000 240.300000 0 0 0 262.730998 30.627659 z" /><desc class="value">110.22</desc><desc class="x centered">283.06969217427013</desc><desc class="y centered">14.388591938096994</desc></g><g class="big_slice"><path class="slice reactive tooltip-trigger" d="M68.750866 305.169865 A240.300000 240.300000 0 0 1 306.000000 26.700000 L306.000000 267.000000 A0.000000 0.000000 0 0 0 306.000000 267.000000 z" /><desc class="value">1053.385</desc><desc class="x centered">214.54214865883614</desc><desc class="y centered">189.08027253604146</desc></g></g></g></g><g class="titles"><text class="title plot_title" x="400.0" y="26">วุฒิการศึกษา</text></g><g class="plot overlay" transform="translate(168, 46)"><g class="series serie-0 color-0" /><g class="series serie-1 color-1" /><g class="series serie-2 color-2" /><g class="series serie-3 color-3" /><g class="series serie-4 color-4" /><g class="series serie-5 color-5" /></g><g class="plot text-overlay" transform="translate(168, 46)"><g class="series serie-0 color-0" /><g class="series serie-1 color-1" /><g class="series serie-2 color-2" /><g class="series serie-3 color-3" /><g class="series serie-4 color-4" /><g class="series serie-5 color-5" /></g><g class="plot tooltip-overlay" transform="translate(168, 46)"><g class="tooltip" style="opacity: 0" transform="translate(0 0)"><rect class="tooltip-box" height="0" rx="0" ry="0" width="0" /><g class="text" /></g></g><g class="legends" transform="translate(10, 56)"><g class="legend reactive activate-serie" id="activate-serie-0"><rect class="color-0 reactive" height="12" width="12" x="0.0" y="1.0" /><text x="17.0" y="11.2">ประถมศึกษาหรือ…</text><title>ประถมศึกษาหรือต่ำกว่า</title></g><g class="legend reactive activate-serie" id="activate-serie-1"><rect class="color-1 reactive" height="12" width="12" x="0.0" y="22.0" /><text x="17.0" y="32.2">มัธยมศึกษาตอนต…</text><title>มัธยมศึกษาตอนต้น</title></g><g class="legend reactive activate-serie" id="activate-serie-2"><rect class="color-2 reactive" height="12" width="12" x="0.0" y="43.0" /><text x="17.0" y="53.2">มัธยมศึกษาตอนป…</text><title>มัธยมศึกษาตอนปลาย</title></g><g class="legend reactive activate-serie" id="activate-serie-3"><rect class="color-3 reactive" height="12" width="12" x="0.0" y="64.0" /><text x="17.0" y="74.2">อาชีวศึกษา</text></g><g class="legend reactive activate-serie" id="activate-serie-4"><rect class="color-4 reactive" height="12" width="12" x="0.0" y="85.0" /><text x="17.0" y="95.2">ประกาศนียบัตรว…</text><title>ประกาศนียบัตรวิชาชีพชั้นสูง</title></g><g class="legend reactive activate-serie" id="activate-serie-5"><rect class="color-5 reactive" height="12" width="12" x="0.0" y="106.0" /><text x="17.0" y="116.2">ปริญญาตรี</text></g></g><g class="legends" transform="translate(790, 56)" /></g></svg>