<?xml version='1.0' encoding='utf-8'?>
<svg xmlns:xlink="http://www.w3.org/1999/xlink" class="pygal-chart" id="chart-2c4b6b16-2c7e-4efd-8c04-18bee6df3517" viewBox="0 0 800 600" xmlns="http://www.w3.org/2000/svg"><!--Generated with pygal 2.3.0 (etree) ©Kozea 2012-2016 on 2016-12-06--><!--http://pygal.org--><!--http://github.com/Kozea/pygal--><defs><style type="text/css">#chart-2c4b6b16-2c7e-4efd-8c04-18bee6df3517{-webkit-user-select:none;-webkit-font-smoothing:antialiased;font-family:Consolas,"Liberation Mono",Menlo,Courier,monospace}#chart-2c4b6b16-2c7e-4efd-8c04-18bee6df3517 .title{font-family:Consolas,"Liberation Mono",Menlo,Courier,monospace;font-size:16px}#chart-2c4b6b16-2c7e-4efd-8c04-18bee6df3517 .legends .legend text{font-family:Consolas,"Liberation Mono",Menlo,Courier,monospace;font-size:14px}#chart-2c4b6b16-2c7e-4efd-8c04-18bee6df3517 .axis text{font-family:Consolas,"Liberation Mono",Menlo,Courier,monospace;font-size:10px}#chart-2c4b6b16-2c7e-4efd-8c04-18bee6df3517 .axis text.major{font-family:Consolas,"Liberation Mono",Menlo,Courier,monospace;font-size:10px}#chart-2c4b6b16-2c7e-4efd-8c04-18bee6df3517 .text-overlay text.value{font-family:Consolas,"Liberation Mono",Menlo,Courier,monospace;font-size:16px}#chart-2c4b6b16-2c7e-4efd-8c04-18bee6df3517 .text-overlay text.label{font-family:Consolas,"Liberation Mono",Menlo,Courier,monospace;font-size:10px}#chart-2c4b6b16-2c7e-4efd-8c04-18bee6df3517 .tooltip{font-family:Consolas,"Liberation Mono",Menlo,Courier,monospace;font-size:14px}#chart-2c4b6b16-2c7e-4efd-8c04-18bee6df3517 text.no_data{font-family:Consolas,"Liberation Mono",Menlo,Courier,monospace;font-size:64px}
#chart-2c4b6b16-2c7e-4efd-8c04-18bee6df3517{background-color:#f8f8f8}#chart-2c4b6b16-2c7e-4efd-8c04-18bee6df3517 path,#chart-2c4b6b16-2c7e-4efd-8c04-18bee6df3517 line,#chart-2c4b6b16-2c7e-4efd-8c04-18bee6df3517 rect,#chart-2c4b6b16-2c7e-4efd-8c04-18bee6df3517 circle{-webkit-transition:250ms ease-in;-moz-transition:250ms ease-in;transition:250ms ease-in}#chart-2c4b6b16-2c7e-4efd-8c04-18bee6df3517 .graph &gt; .background{fill:#f8f8f8}#chart-2c4b6b16-2c7e-4efd-8c04-18bee6df3517 .plot &gt; .background{fill:#ffffff}#chart-2c4b6b16-2c7e-4efd-8c04-18bee6df3517 .graph{fill:#333}#chart-2c4b6b16-2c7e-4efd-8c04-18bee6df3517 text.no_data{fill:#666}#chart-2c4b6b16-2c7e-4efd-8c04-18bee6df3517 .title{fill:#666}#chart-2c4b6b16-2c7e-4efd-8c04-18bee6df3517 .legends .legend text{fill:#333}#chart-2c4b6b16-2c7e-4efd-8c04-18bee6df3517 .legends .legend:hover text{fill:#666}#chart-2c4b6b16-2c7e-4efd-8c04-18bee6df3517 .axis .line{stroke:#666}#chart-2c4b6b16-2c7e-4efd-8c04-18bee6df3517 .axis .guide.line{stroke:rgba(0,0,0,0.5)}#chart-2c4b6b16-2c7e-4efd-8c04-18bee6df3517 .axis .major.line{stroke:#333}#chart-2c4b6b16-2c7e-4efd-8c04-18bee6df3517 .axis text.major{fill:#666}#chart-2c4b6b16-2c7e-4efd-8c04-18bee6df3517 .axis.y .guides:hover .guide.line,#chart-2c4b6b16-2c7e-4efd-8c04-18bee6df3517 .line-graph .axis.x .guides:hover .guide.line,#chart-2c4b6b16-2c7e-4efd-8c04-18bee6df3517 .stackedline-graph .axis.x .guides:hover .guide.line,#chart-2c4b6b16-2c7e-4efd-8c04-18bee6df3517 .xy-graph .axis.x .guides:hover .guide.line{stroke:#666}#chart-2c4b6b16-2c7e-4efd-8c04-18bee6df3517 .axis .guides:hover text{fill:#666}#chart-2c4b6b16-2c7e-4efd-8c04-18bee6df3517 .reactive{fill-opacity:.5;stroke-opacity:.8}#chart-2c4b6b16-2c7e-4efd-8c04-18bee6df3517 .ci{stroke:#333}#chart-2c4b6b16-2c7e-4efd-8c04-18bee6df3517 .reactive.active,#chart-2c4b6b16-2c7e-4efd-8c04-18bee6df3517 .active .reactive{fill-opacity:.9;stroke-opacity:.9;stroke-width:4}#chart-2c4b6b16-2c7e-4efd-8c04-18bee6df3517 .ci .reactive.active{stroke-width:1.5}#chart-2c4b6b16-2c7e-4efd-8c04-18bee6df3517 .series text{fill:#666}#chart-2c4b6b16-2c7e-4efd-8c04-18bee6df3517 .tooltip rect{fill:#ffffff;stroke:#666;-webkit-transition:opacity 250ms ease-in;-moz-transition:opacity 250ms ease-in;transition:opacity 250ms ease-in}#chart-2c4b6b16-2c7e-4efd-8c04-18bee6df3517 .tooltip .label{fill:#333}#chart-2c4b6b16-2c7e-4efd-8c04-18bee6df3517 .tooltip .label{fill:#333}#chart-2c4b6b16-2c7e-4efd-8c04-18bee6df3517 .tooltip .legend{font-size:.8em;fill:rgba(0,0,0,0.5)}#chart-2c4b6b16-2c7e-4efd-8c04-18bee6df3517 .tooltip .x_label{font-size:.6em;fill:#666}#chart-2c4b6b16-2c7e-4efd-8c04-18bee6df3517 .tooltip .xlink{font-size:.5em;text-decoration:underline}#chart-2c4b6b16-2c7e-4efd-8c04-18bee6df3517 .tooltip .value{font-size:1.5em}#chart-2c4b6b16-2c7e-4efd-8c04-18bee6df3517 .bound{font-size:.5em}#chart-2c4b6b16-2c7e-4efd-8c04-18bee6df3517 .max-value{font-size:.75em;fill:rgba(0,0,0,0.5)}#chart-2c4b6b16-2c7e-4efd-8c04-18bee6df3517 .map-element{fill:#ffffff;stroke:rgba(0,0,0,0.5) !important}#chart-2c4b6b16-2c7e-4efd-8c04-18bee6df3517 .map-element .reactive{fill-opacity:inherit;stroke-opacity:inherit}#chart-2c4b6b16-2c7e-4efd-8c04-18bee6df3517 .color-0,#chart-2c4b6b16-2c7e-4efd-8c04-18bee6df3517 .color-0 a:visited{stroke:#fe9592;fill:#fe9592}#chart-2c4b6b16-2c7e-4efd-8c04-18bee6df3517 .text-overlay .color-0 text{fill:black}
#chart-2c4b6b16-2c7e-4efd-8c04-18bee6df3517 text.no_data{text-anchor:middle}#chart-2c4b6b16-2c7e-4efd-8c04-18bee6df3517 .guide.line{fill:none}#chart-2c4b6b16-2c7e-4efd-8c04-18bee6df3517 .centered{text-anchor:middle}#chart-2c4b6b16-2c7e-4efd-8c04-18bee6df3517 .title{text-anchor:middle}#chart-2c4b6b16-2c7e-4efd-8c04-18bee6df3517 .legends .legend text{fill-opacity:1}#chart-2c4b6b16-2c7e-4efd-8c04-18bee6df3517 .axis.x text{text-anchor:middle}#chart-2c4b6b16-2c7e-4efd-8c04-18bee6df3517 .axis.x:not(.web) text[transform]{text-anchor:start}#chart-2c4b6b16-2c7e-4efd-8c04-18bee6df3517 .axis.x:not(.web) text[transform].backwards{text-anchor:end}#chart-2c4b6b16-2c7e-4efd-8c04-18bee6df3517 .axis.y text{text-anchor:end}#chart-2c4b6b16-2c7e-4efd-8c04-18bee6df3517 .axis.y text[transform].backwards{text-anchor:start}#chart-2c4b6b16-2c7e-4efd-8c04-18bee6df3517 .axis.y2 text{text-anchor:start}#chart-2c4b6b16-2c7e-4efd-8c04-18bee6df3517 .axis.y2 text[transform].backwards{text-anchor:end}#chart-2c4b6b16-2c7e-4efd-8c04-18bee6df3517 .axis .guide.line{stroke-dasharray:4,4}#chart-2c4b6b16-2c7e-4efd-8c04-18bee6df3517 .axis .major.guide.line{stroke-dasharray:6,6}#chart-2c4b6b16-2c7e-4efd-8c04-18bee6df3517 .horizontal .axis.y .guide.line,#chart-2c4b6b16-2c7e-4efd-8c04-18bee6df3517 .horizontal .axis.y2 .guide.line,#chart-2c4b6b16-2c7e-4efd-8c04-18bee6df3517 .vertical .axis.x .guide.line{opacity:0}#chart-2c4b6b16-2c7e-4efd-8c04-18bee6df3517 .horizontal .axis.always_show .guide.line,#chart-2c4b6b16-2c7e-4efd-8c04-18bee6df3517 .vertical .axis.always_show .guide.line{opacity:1 !important}#chart-2c4b6b16-2c7e-4efd-8c04-18bee6df3517 .axis.y .guides:hover .guide.line,#chart-2c4b6b16-2c7e-4efd-8c04-18bee6df3517 .axis.y2 .guides:hover .guide.line,#chart-2c4b6b16-2c7e-4efd-8c04-18bee6df3517 .axis.x .guides:hover .guide.line{opacity:1}#chart-2c4b6b16-2c7e-4efd-8c04-18bee6df3517 .axis .guides:hover text{opacity:1}#chart-2c4b6b16-2c7e-4efd-8c04-18bee6df3517 .nofill{fill:none}#chart-2c4b6b16-2c7e-4efd-8c04-18bee6df3517 .subtle-fill{fill-opacity:.2}#chart-2c4b6b16-2c7e-4efd-8c04-18bee6df3517 .dot{stroke-width:1px;fill-opacity:1}#chart-2c4b6b16-2c7e-4efd-8c04-18bee6df3517 .dot.active{stroke-width:5px}#chart-2c4b6b16-2c7e-4efd-8c04-18bee6df3517 .dot.negative{fill:transparent}#chart-2c4b6b16-2c7e-4efd-8c04-18bee6df3517 text,#chart-2c4b6b16-2c7e-4efd-8c04-18bee6df3517 tspan{stroke:none !important}#chart-2c4b6b16-2c7e-4efd-8c04-18bee6df3517 .series text.active{opacity:1}#chart-2c4b6b16-2c7e-4efd-8c04-18bee6df3517 .tooltip rect{fill-opacity:.95;stroke-width:.5}#chart-2c4b6b16-2c7e-4efd-8c04-18bee6df3517 .tooltip text{fill-opacity:1}#chart-2c4b6b16-2c7e-4efd-8c04-18bee6df3517 .showable{visibility:hidden}#chart-2c4b6b16-2c7e-4efd-8c04-18bee6df3517 .showable.shown{visibility:visible}#chart-2c4b6b16-2c7e-4efd-8c04-18bee6df3517 .gauge-background{fill:rgba(229,229,229,1);stroke:none}#chart-2c4b6b16-2c7e-4efd-8c04-18bee6df3517 .bg-lines{stroke:#f8f8f8;stroke-width:2px}</style><script type="text/javascript">window.pygal = window.pygal || {};window.pygal.config = window.pygal.config || {};window.pygal.config['2c4b6b16-2c7e-4efd-8c04-18bee6df3517'] = {"disable_xml_declaration": false, "legend_box_size": 12, "force_uri_protocol": "https", "classes": ["pygal-chart"], "print_values_position": "center", "height": 600, "tooltip_fancy_mode": true, "margin_bottom": null, "inverse_y_axis": false, "x_labels": ["2556/1", "2556/2", "2556/3", "2556/4", "2557/1", "2557/2", "2557/3", "2557/4", "2558/1", "2558/2", "2558/3", "2558/4"], "y_labels_major": null, "y_labels": null, "zero": 0, "missing_value_fill_truncation": "x", "dynamic_print_values": false, "show_y_guides": true, "legends": ["\u0e23\u0e27\u0e21"], "y_labels_major_count": null, "x_label_rotation": 0, "rounded_bars": null, "half_pie": false, "order_min": null, "x_labels_major": null, "show_legend": true, "margin": 20, "margin_right": null, "js": ["//kozea.github.io/pygal.js/2.0.x/pygal-tooltips.min.js"], "width": 800, "defs": [], "inner_radius": 0, "range": null, "truncate_label": null, "stroke": true, "no_data_text": "No data", "fill": true, "style": {"foreground_subtle": "rgba(0, 0 , 0, 0.5)", "tooltip_font_family": "Consolas, \"Liberation Mono\", Menlo, Courier, monospace", "foreground": "#333", "major_label_font_size": 10, "value_colors": [], "value_font_size": 16, "value_label_font_family": "Consolas, \"Liberation Mono\", Menlo, Courier, monospace", "no_data_font_size": 64, "plot_background": "#ffffff", "background": "#f8f8f8", "title_font_family": "Consolas, \"Liberation Mono\", Menlo, Courier, monospace", "major_guide_stroke_dasharray": "6,6", "guide_stroke_dasharray": "4,4", "tooltip_font_size": 14, "value_label_font_size": 10, "opacity_hover": ".9", "no_data_font_family": "Consolas, \"Liberation Mono\", Menlo, Courier, monospace", "label_font_size": 10, "foreground_strong": "#666", "font_family": "Consolas, \"Liberation Mono\", Menlo, Courier, monospace", "label_font_family": "Consolas, \"Liberation Mono\", Menlo, Courier, monospace", "transition": "250ms ease-in", "legend_font_size": 14, "ci_colors": [], "title_font_size": 16, "colors": ["#fe9592", "#534f4c", "#3ac2c0", "#a2a7a1", "#fd4b46", "#7b7571", "#73d5d4", "#c9ccc9", "#ffdfde", "#2e9b99"], "legend_font_family": "Consolas, \"Liberation Mono\", Menlo, Courier, monospace", "stroke_opacity_hover": ".9", "value_font_family": "Consolas, \"Liberation Mono\", Menlo, Courier, monospace", "major_label_font_family": "Consolas, \"Liberation Mono\", Menlo, Courier, monospace", "opacity": ".5", "stroke_opacity": ".8", "value_background": "rgba(229, 229, 229, 1)"}, "stroke_style": null, "show_only_major_dots": false, "explicit_size": false, "secondary_range": null, "margin_top": null, "stack_from_top": false, "x_labels_major_every": null, "title": "\u0e2d\u0e31\u0e15\u0e23\u0e32\u0e01\u0e32\u0e23\u0e27\u0e48\u0e32\u0e07\u0e07\u0e32\u0e19 \u0e17\u0e31\u0e48\u0e27\u0e23\u0e32\u0e0a\u0e2d\u0e32\u0e13\u0e32\u0e08\u0e31\u0e01\u0e23", "interpolate": "cubic", "interpolation_precision": 250, "legend_at_bottom": false, "truncate_legend": null, "strict": false, "spacing": 10, "formatter": null, "allow_interruptions": false, "print_zeroes": true, "print_values": false, "y_labels_major_every": null, "logarithmic": false, "include_x_axis": false, "no_prefix": false, "x_labels_major_count": null, "show_x_guides": false, "interpolation_parameters": {}, "show_dots": true, "show_minor_y_labels": true, "show_y_labels": true, "xrange": null, "max_scale": 16, "y_label_rotation": 0, "css": ["file://style.css", "file://graph.css"], "x_title": null, "dots_size": 2.5, "print_labels": false, "y_title": null, "margin_left": null, "pretty_print": false, "box_mode": "extremes", "show_x_labels": true, "min_scale": 4, "show_minor_x_labels": true, "tooltip_border_radius": 0, "legend_at_bottom_columns": null}</script><script type="text/javascript" xlink:href="https://kozea.github.io/pygal.js/2.0.x/pygal-tooltips.min.js" /></defs><title>อัตราการว่างงาน ทั่วราชอาณาจักร</title><g class="graph stackedline-graph vertical"><rect class="background" height="600" width="800" x="0" y="0" /><g class="plot" transform="translate(95, 46)"><rect class="background" height="514" width="684.8" x="0" y="0" /><g class="axis y"><path class="line" d="M0.000000 514.000000 h684.800000" /><g class="guides"><path class="guide line" d="M0.000000 497.996549 h684.800000" /><text class="" x="-5" y="501.49654935886116">0.6</text><title>0.6</title></g><g class="guides"><path class="guide line" d="M0.000000 378.908604 h684.800000" /><text class="" x="-5" y="382.4086043524687">0.7</text><title>0.7</title></g><g class="guides"><path class="guide line" d="M0.000000 259.820659 h684.800000" /><text class="" x="-5" y="263.32065934607624">0.8</text><title>0.8</title></g><g class="guides"><path class="guide line" d="M0.000000 140.732714 h684.800000" /><text class="" x="-5" y="144.23271433968387">0.9</text><title>0.9</title></g><g class="guides"><path class="major guide line" d="M0.000000 21.644769 h684.800000" /><text class="major" x="-5" y="25.144769333291492">1</text><title>1</title></g></g><g class="axis x"><g class="guides"><path class="line" d="M13.169231 0.000000 v514.000000" /><text class="" x="13.169230769230769" y="529.0">2556/1</text></g><g class="guides"><path class="guide line" d="M73.029371 0.000000 v514.000000" /><text class="" x="73.02937062937062" y="529.0">2556/2</text></g><g class="guides"><path class="guide line" d="M132.889510 0.000000 v514.000000" /><text class="" x="132.88951048951049" y="529.0">2556/3</text></g><g class="guides"><path class="guide line" d="M192.749650 0.000000 v514.000000" /><text class="" x="192.74965034965032" y="529.0">2556/4</text></g><g class="guides"><path class="guide line" d="M252.609790 0.000000 v514.000000" /><text class="" x="252.60979020979022" y="529.0">2557/1</text></g><g class="guides"><path class="guide line" d="M312.469930 0.000000 v514.000000" /><text class="" x="312.46993006993006" y="529.0">2557/2</text></g><g class="guides"><path class="guide line" d="M372.330070 0.000000 v514.000000" /><text class="" x="372.33006993006984" y="529.0">2557/3</text></g><g class="guides"><path class="guide line" d="M432.190210 0.000000 v514.000000" /><text class="" x="432.1902097902098" y="529.0">2557/4</text></g><g class="guides"><path class="guide line" d="M492.050350 0.000000 v514.000000" /><text class="" x="492.05034965034963" y="529.0">2558/1</text></g><g class="guides"><path class="guide line" d="M551.910490 0.000000 v514.000000" /><text class="" x="551.9104895104895" y="529.0">2558/2</text></g><g class="guides"><path class="guide line" d="M611.770629 0.000000 v514.000000" /><text class="" x="611.7706293706293" y="529.0">2558/3</text></g><g class="guides"><path class="guide line" d="M671.630769 0.000000 v514.000000" /><text class="" x="671.6307692307691" y="529.0">2558/4</text></g></g><g class="series serie-0 color-0"><path class="line reactive" d="M13.169231 514.000000 L13.169231 378.908604 13.408671 379.187872 13.648112 379.467112 13.887552 379.746299 14.126993 380.025405 14.366434 380.304405 14.605874 380.583270 14.845315 380.861974 15.084755 381.140491 15.324196 381.418793 15.563636 381.696854 15.803077 381.974646 16.042517 382.252144 16.281958 382.529320 16.521399 382.806148 16.760839 383.082600 17.000280 383.358650 17.239720 383.634271 17.479161 383.909437 17.718601 384.184119 17.958042 384.458293 18.197483 384.731930 18.436923 385.005004 18.676364 385.277489 18.915804 385.549356 19.155245 385.820580 19.394685 386.091135 19.634126 386.360991 19.873566 386.630125 20.113007 386.898507 20.352448 387.166112 20.591888 387.432912 20.831329 387.698882 21.070769 387.963994 21.310210 388.228220 21.549650 388.491536 21.789091 388.753913 22.028531 389.015324 22.267972 389.275744 22.507413 389.535145 22.746853 389.793501 22.986294 390.050784 23.225734 390.306967 23.465175 390.562025 23.704615 390.815930 23.944056 391.068655 24.183497 391.320174 24.422937 391.570460 24.662378 391.819485 24.901818 392.067224 25.141259 392.313649 25.380699 392.558733 25.620140 392.802451 25.859580 393.044774 26.099021 393.285676 26.338462 393.525130 26.577902 393.763110 26.817343 393.999588 27.056783 394.234538 27.296224 394.467934 27.535664 394.699747 27.775105 394.929952 28.014545 395.158521 28.253986 395.385428 28.493427 395.610647 28.732867 395.834149 28.972308 396.055909 29.211748 396.275899 29.451189 396.494093 29.690629 396.710463 29.930070 396.924984 30.169510 397.137629 30.408951 397.348369 30.648392 397.557180 30.887832 397.764033 31.127273 397.968902 31.366713 398.171761 31.606154 398.372582 31.845594 398.571338 32.085035 398.768004 32.324476 398.962551 32.563916 399.154954 32.803357 399.345185 33.042797 399.533217 33.282238 399.719025 33.521678 399.902580 33.761119 400.083856 34.000559 400.262827 34.240000 400.439465 34.479441 400.613744 34.718881 400.785637 34.958322 400.955117 35.197762 401.122157 35.437203 401.286731 35.676643 401.448812 35.916084 401.608372 36.155524 401.765385 36.394965 401.919825 36.634406 402.071664 36.873846 402.220875 37.113287 402.367432 37.352727 402.511309 37.592168 402.652477 37.831608 402.790911 38.071049 402.926584 38.310490 403.059468 38.549930 403.189537 38.789371 403.316764 39.028811 403.441123 39.268252 403.562586 39.507692 403.681127 39.747133 403.796719 39.986573 403.909334 40.226014 404.018947 40.465455 404.125531 40.704895 404.229058 40.944336 404.329502 41.183776 404.426836 41.423217 404.521033 41.662657 404.612067 41.902098 404.699910 42.141538 404.784536 42.380979 404.865918 42.620420 404.944030 42.859860 405.018843 43.099301 405.090332 43.338741 405.158470 43.578182 405.223230 43.817622 405.284585 44.057063 405.342508 44.296503 405.396973 44.535944 405.447952 44.775385 405.495419 45.014825 405.539348 45.254266 405.579710 45.493706 405.616480 45.733147 405.649631 45.972587 405.679135 46.212028 405.704967 46.451469 405.727099 46.690909 405.745504 46.930350 405.760155 47.169790 405.771027 47.409231 405.778091 47.648671 405.781322 47.888112 405.780692 48.127552 405.776174 48.366993 405.767743 48.606434 405.755370 48.845874 405.739029 49.085315 405.718694 49.324755 405.694337 49.564196 405.665931 49.803636 405.633451 50.043077 405.596869 50.282517 405.556157 50.521958 405.511291 50.761399 405.462242 51.000839 405.408983 51.240280 405.351489 51.479720 405.289732 51.719161 405.223686 51.958601 405.153322 52.198042 405.078616 52.437483 404.999540 52.676923 404.916067 52.916364 404.828170 53.155804 404.735822 53.395245 404.638998 53.634685 404.537669 53.874126 404.431809 54.113566 404.321392 54.353007 404.206390 54.592448 404.086777 54.831888 403.962526 55.071329 403.833609 55.310769 403.700001 55.550210 403.561675 55.789650 403.418602 56.029091 403.270758 56.268531 403.118115 56.507972 402.960646 56.747413 402.798324 56.986853 402.631123 57.226294 402.459016 57.465734 402.281975 57.705175 402.099975 57.944615 401.912988 58.184056 401.720988 58.423497 401.523947 58.662937 401.321839 58.902378 401.114637 59.141818 400.902315 59.381259 400.684845 59.620699 400.462200 59.860140 400.234355 60.099580 400.001281 60.339021 399.762953 60.578462 399.519343 60.817902 399.270425 61.057343 399.016171 61.296783 398.756556 61.536224 398.491551 61.775664 398.221132 62.015105 397.945269 62.254545 397.663937 62.493986 397.377110 62.733427 397.084759 62.972867 396.786859 63.212308 396.483382 63.451748 396.174302 63.691189 395.859592 63.930629 395.539224 64.170070 395.213174 64.409510 394.881412 64.648951 394.543913 64.888392 394.200650 65.127832 393.851596 65.367273 393.496725 65.606713 393.136008 65.846154 392.769421 66.085594 392.396935 66.325035 392.018524 66.564476 391.634161 66.803916 391.243819 67.043357 390.847472 67.282797 390.445093 67.522238 390.036655 67.761678 389.622131 68.001119 389.201494 68.240559 388.774717 68.480000 388.341774 68.719441 387.902639 68.958881 387.457283 69.198322 387.005680 69.437762 386.547804 69.677203 386.083628 69.916643 385.613124 70.156084 385.136266 70.395524 384.653028 70.634965 384.163382 70.874406 383.667301 71.113846 383.164760 71.353287 382.655730 71.592727 382.140185 71.832168 381.618099 72.071608 381.089444 72.311049 380.554194 72.550490 380.012322 72.789930 379.463801 73.029371 378.908604 73.268811 378.346724 73.508252 377.778230 73.747692 377.203210 73.987133 376.621752 74.226573 376.033945 74.466014 375.439877 74.705455 374.839637 74.944895 374.233312 75.184336 373.620991 75.423776 373.002763 75.663217 372.378715 75.902657 371.748937 76.142098 371.113515 76.381538 370.472540 76.620979 369.826098 76.860420 369.174279 77.099860 368.517170 77.339301 367.854860 77.578741 367.187437 77.818182 366.514990 78.057622 365.837607 78.297063 365.155376 78.536503 364.468386 78.775944 363.776724 79.015385 363.080480 79.254825 362.379741 79.494266 361.674596 79.733706 360.965133 79.973147 360.251440 80.212587 359.533607 80.452028 358.811720 80.691469 358.085869 80.930909 357.356141 81.170350 356.622626 81.409790 355.885411 81.649231 355.144584 81.888671 354.400235 82.128112 353.652451 82.367552 352.901321 82.606993 352.146933 82.846434 351.389375 83.085874 350.628735 83.325315 349.865103 83.564755 349.098566 83.804196 348.329212 84.043636 347.557130 84.283077 346.782409 84.522517 346.005136 84.761958 345.225400 85.001399 344.443289 85.240839 343.658892 85.480280 342.872296 85.719720 342.083591 85.959161 341.292864 86.198601 340.500204 86.438042 339.705699 86.677483 338.909438 86.916923 338.111508 87.156364 337.311998 87.395804 336.510997 87.635245 335.708592 87.874685 334.904873 88.114126 334.099927 88.353566 333.293842 88.593007 332.486708 88.832448 331.678611 89.071888 330.869642 89.311329 330.059887 89.550769 329.249436 89.790210 328.438376 90.029650 327.626797 90.269091 326.814785 90.508531 326.002430 90.747972 325.189820 90.987413 324.377043 91.226853 323.564188 91.466294 322.751343 91.705734 321.938595 91.945175 321.126034 92.184615 320.313748 92.424056 319.501826 92.663497 318.690354 92.902937 317.879423 93.142378 317.069119 93.381818 316.259532 93.621259 315.450749 93.860699 314.642860 94.100140 313.835952 94.339580 313.030114 94.579021 312.225434 94.818462 311.422000 95.057902 310.619900 95.297343 309.819224 95.536783 309.020059 95.776224 308.222494 96.015664 307.426616 96.255105 306.632515 96.494545 305.840279 96.733986 305.049995 96.973427 304.261753 97.212867 303.475640 97.452308 302.691745 97.691748 301.910156 97.931189 301.130962 98.170629 300.354250 98.410070 299.580110 98.649510 298.808629 98.888951 298.039896 99.128392 297.273999 99.367832 296.511026 99.607273 295.751066 99.846713 294.994208 100.086154 294.240538 100.325594 293.490147 100.565035 292.743121 100.804476 291.999550 101.043916 291.259521 101.283357 290.523124 101.522797 289.790446 101.762238 289.061575 102.001678 288.336600 102.241119 287.615610 102.480559 286.898692 102.720000 286.185935 102.959441 285.477428 103.198881 284.773258 103.438322 284.073514 103.677762 283.378284 103.917203 282.687656 104.156643 282.001720 104.396084 281.320562 104.635524 280.644272 104.874965 279.972938 105.114406 279.306648 105.353846 278.645491 105.593287 277.989554 105.832727 277.338926 106.072168 276.693696 106.311608 276.053951 106.551049 275.419781 106.790490 274.791273 107.029930 274.168515 107.269371 273.551597 107.508811 272.940606 107.748252 272.335630 107.987692 271.736759 108.227133 271.144080 108.466573 270.557681 108.706014 269.977652 108.945455 269.404079 109.184895 268.837052 109.424336 268.276660 109.663776 267.722989 109.903217 267.176129 110.142657 266.636168 110.382098 266.103194 110.621538 265.577295 110.860979 265.058560 111.100420 264.547078 111.339860 264.042936 111.579301 263.546222 111.818741 263.057026 112.058182 262.575435 112.297622 262.101538 112.537063 261.635423 112.776503 261.177178 113.015944 260.726893 113.255385 260.284654 113.494825 259.850550 113.734266 259.424670 113.973706 259.007103 114.213147 258.597935 114.452587 258.197256 114.692028 257.805154 114.931469 257.421718 115.170909 257.047034 115.410350 256.681193 115.649790 256.324282 115.889231 255.976390 116.128671 255.637605 116.368112 255.308014 116.607552 254.987707 116.846993 254.676773 117.086434 254.375298 117.325874 254.083372 117.565315 253.801082 117.804755 253.528518 118.044196 253.265767 118.283636 253.012918 118.523077 252.770059 118.762517 252.537278 119.001958 252.314664 119.241399 252.102305 119.480839 251.900290 119.720280 251.708706 119.959720 251.527642 120.199161 251.357187 120.438601 251.197428 120.678042 251.048454 120.917483 250.910353 121.156923 250.783214 121.396364 250.667125 121.635804 250.562175 121.875245 250.468450 122.114685 250.386041 122.354126 250.315035 122.593566 250.255520 122.833007 250.207586 123.072448 250.171319 123.311888 250.146809 123.551329 250.134144 123.790769 250.133412 124.030210 250.144701 124.269650 250.168101 124.509091 250.203698 124.748531 250.251582 124.987972 250.311840 125.227413 250.384562 125.466853 250.469835 125.706294 250.567747 125.945734 250.678388 126.185175 250.801845 126.424615 250.938206 126.664056 251.087561 126.903497 251.249997 127.142937 251.425603 127.382378 251.614466 127.621818 251.816676 127.861259 252.032320 128.100699 252.261488 128.340140 252.504266 128.579580 252.760744 128.819021 253.031010 129.058462 253.315152 129.297902 253.613259 129.537343 253.925419 129.776783 254.251719 130.016224 254.592249 130.255664 254.947097 130.495105 255.316352 130.734545 255.700100 130.973986 256.098431 131.213427 256.511434 131.452867 256.939195 131.692308 257.381805 131.931748 257.839350 132.171189 258.311920 132.410629 258.799603 132.650070 259.302486 132.889510 259.820659 133.128951 260.354171 133.368392 260.902917 133.607832 261.466754 133.847273 262.045537 134.086713 262.639124 134.326154 263.247371 134.565594 263.870134 134.805035 264.507270 135.044476 265.158635 135.283916 265.824086 135.523357 266.503479 135.762797 267.196671 136.002238 267.903517 136.241678 268.623875 136.481119 269.357601 136.720559 270.104551 136.960000 270.864582 137.199441 271.637550 137.438881 272.423312 137.678322 273.221724 137.917762 274.032643 138.157203 274.855924 138.396643 275.691425 138.636084 276.539002 138.875524 277.398512 139.114965 278.269810 139.354406 279.152753 139.593846 280.047198 139.833287 280.953002 140.072727 281.870020 140.312168 282.798108 140.551608 283.737125 140.791049 284.686925 141.030490 285.647366 141.269930 286.618303 141.509371 287.599594 141.748811 288.591095 141.988252 289.592661 142.227692 290.604151 142.467133 291.625419 142.706573 292.656323 142.946014 293.696719 143.185455 294.746463 143.424895 295.805412 143.664336 296.873422 143.903776 297.950351 144.143217 299.036053 144.382657 300.130386 144.622098 301.233206 144.861538 302.344369 145.100979 303.463733 145.340420 304.591153 145.579860 305.726485 145.819301 306.869587 146.058741 308.020315 146.298182 309.178525 146.537622 310.344074 146.777063 311.516818 147.016503 312.696613 147.255944 313.883316 147.495385 315.076784 147.734825 316.276873 147.974266 317.483439 148.213706 318.696338 148.453147 319.915428 148.692587 321.140565 148.932028 322.371605 149.171469 323.608404 149.410909 324.850819 149.650350 326.098707 149.889790 327.351924 150.129231 328.610326 150.368671 329.873769 150.608112 331.142111 150.847552 332.415208 151.086993 333.692916 151.326434 334.975091 151.565874 336.261591 151.805315 337.552271 152.044755 338.846988 152.284196 340.145598 152.523636 341.447958 152.763077 342.753924 153.002517 344.063353 153.241958 345.376101 153.481399 346.692025 153.720839 348.010981 153.960280 349.332825 154.199720 350.657414 154.439161 351.984604 154.678601 353.314253 154.918042 354.646216 155.157483 355.980349 155.396923 357.316509 155.636364 358.654554 155.875804 359.994338 156.115245 361.335719 156.354685 362.678552 156.594126 364.022695 156.833566 365.368004 157.073007 366.714336 157.312448 368.061546 157.551888 369.409491 157.791329 370.758028 158.030769 372.107012 158.270210 373.456302 158.509650 374.805752 158.749091 376.155220 158.988531 377.504562 159.227972 378.853634 159.467413 380.202292 159.706853 381.550394 159.946294 382.897796 160.185734 384.244354 160.425175 385.589924 160.664615 386.934363 160.904056 388.277528 161.143497 389.619274 161.382937 390.959459 161.622378 392.297939 161.861818 393.634570 162.101259 394.969208 162.340699 396.301711 162.580140 397.631934 162.819580 398.959734 163.059021 400.284968 163.298462 401.607491 163.537902 402.927161 163.777343 404.243834 164.016783 405.557366 164.256224 406.867614 164.495664 408.174433 164.735105 409.477682 164.974545 410.777215 165.213986 412.072890 165.453427 413.364563 165.692867 414.652090 165.932308 415.935328 166.171748 417.214133 166.411189 418.488362 166.650629 419.757871 166.890070 421.022517 167.129510 422.282156 167.368951 423.536644 167.608392 424.785838 167.847832 426.029595 168.087273 427.267770 168.326713 428.500221 168.566154 429.726803 168.805594 430.947374 169.045035 432.161789 169.284476 433.369905 169.523916 434.571579 169.763357 435.766666 170.002797 436.955024 170.242238 438.136509 170.481678 439.310978 170.721119 440.478286 170.960559 441.638290 171.200000 442.790847 171.439441 443.935813 171.678881 445.073044 171.918322 446.202397 172.157762 447.323729 172.397203 448.436896 172.636643 449.541754 172.876084 450.638160 173.115524 451.725970 173.354965 452.805040 173.594406 453.875228 173.833846 454.936389 174.073287 455.988380 174.312727 457.031058 174.552168 458.064279 174.791608 459.087899 175.031049 460.101774 175.270490 461.105762 175.509930 462.099719 175.749371 463.083501 175.988811 464.056964 176.228252 465.019965 176.467692 465.972361 176.707133 466.914008 176.946573 467.844762 177.186014 468.764479 177.425455 469.673017 177.664895 470.570232 177.904336 471.455980 178.143776 472.330117 178.383217 473.192501 178.622657 474.042987 178.862098 474.881432 179.101538 475.707692 179.340979 476.521624 179.580420 477.323084 179.819860 478.111929 180.059301 478.888016 180.298741 479.651199 180.538182 480.401337 180.777622 481.138286 181.017063 481.861901 181.256503 482.572040 181.495944 483.268558 181.735385 483.951313 181.974825 484.620160 182.214266 485.274957 182.453706 485.915559 182.693147 486.541824 182.932587 487.153607 183.172028 487.750764 183.411469 488.333154 183.650909 488.900631 183.890350 489.453052 184.129790 489.990274 184.369231 490.512153 184.608671 491.018546 184.848112 491.509310 185.087552 491.984299 185.326993 492.443372 185.566434 492.886384 185.805874 493.313191 186.045315 493.723652 186.284755 494.117621 186.524196 494.494955 186.763636 494.855510 187.003077 495.199144 187.242517 495.525713 187.481958 495.835072 187.721399 496.127079 187.960839 496.401590 188.200280 496.658461 188.439720 496.897549 188.679161 497.118710 188.918601 497.321801 189.158042 497.506678 189.397483 497.673197 189.636923 497.821216 189.876364 497.950590 190.115804 498.061175 190.355245 498.152830 190.594685 498.225409 190.834126 498.278769 191.073566 498.312767 191.313007 498.327259 191.552448 498.322102 191.791888 498.297151 192.031329 498.252264 192.270769 498.187298 192.510210 498.102107 192.749650 497.996549 192.989091 497.870525 193.228531 497.724110 193.467972 497.557424 193.707413 497.370587 193.946853 497.163721 194.186294 496.936943 194.425734 496.690375 194.665175 496.424137 194.904615 496.138349 195.144056 495.833130 195.383497 495.508601 195.622937 495.164883 195.862378 494.802093 196.101818 494.420354 196.341259 494.019785 196.580699 493.600507 196.820140 493.162638 197.059580 492.706299 197.299021 492.231611 197.538462 491.738693 197.777902 491.227665 198.017343 490.698648 198.256783 490.151761 198.496224 489.587125 198.735664 489.004860 198.975105 488.405085 199.214545 487.787920 199.453986 487.153487 199.693427 486.501904 199.932867 485.833293 200.172308 485.147772 200.411748 484.445462 200.651189 483.726483 200.890629 482.990955 201.130070 482.238998 201.369510 481.470733 201.608951 480.686279 201.848392 479.885756 202.087832 479.069284 202.327273 478.236984 202.566713 477.388976 202.806154 476.525379 203.045594 475.646313 203.285035 474.751899 203.524476 473.842257 203.763916 472.917507 204.003357 471.977768 204.242797 471.023161 204.482238 470.053807 204.721678 469.069824 204.961119 468.071333 205.200559 467.058454 205.440000 466.031308 205.679441 464.990013 205.918881 463.934691 206.158322 462.865461 206.397762 461.782444 206.637203 460.685759 206.876643 459.575526 207.116084 458.451866 207.355524 457.314898 207.594965 456.164744 207.834406 455.001521 208.073846 453.825352 208.313287 452.636355 208.552727 451.434652 208.792168 450.220361 209.031608 448.993603 209.271049 447.754498 209.510490 446.503166 209.749930 445.239727 209.989371 443.964302 210.228811 442.677010 210.468252 441.377971 210.707692 440.067305 210.947133 438.745133 211.186573 437.411574 211.426014 436.066749 211.665455 434.710778 211.904895 433.343780 212.144336 431.965875 212.383776 430.577185 212.623217 429.177828 212.862657 427.767925 213.102098 426.347596 213.341538 424.916961 213.580979 423.476140 213.820420 422.025253 214.059860 420.564421 214.299301 419.093762 214.538741 417.613398 214.778182 416.123447 215.017622 414.624032 215.257063 413.115270 215.496503 411.597284 215.735944 410.070191 215.975385 408.534113 216.214825 406.989170 216.454266 405.435482 216.693706 403.873168 216.933147 402.302349 217.172587 400.723145 217.412028 399.135676 217.651469 397.540062 217.890909 395.936422 218.130350 394.324878 218.369790 392.705549 218.609231 391.078555 218.848671 389.444017 219.088112 387.802053 219.327552 386.152785 219.566993 384.496333 219.806434 382.832816 220.045874 381.162354 220.285315 379.485068 220.524755 377.801077 220.764196 376.110503 221.003636 374.413464 221.243077 372.710080 221.482517 371.000473 221.721958 369.284761 221.961399 367.563066 222.200839 365.835506 222.440280 364.102203 222.679720 362.363276 222.919161 360.618844 223.158601 358.869029 223.398042 357.113951 223.637483 355.353728 223.876923 353.588482 224.116364 351.818333 224.355804 350.043400 224.595245 348.263804 224.834685 346.479664 225.074126 344.691101 225.313566 342.898234 225.553007 341.101185 225.792448 339.300072 226.031888 337.495016 226.271329 335.686137 226.510769 333.873555 226.750210 332.057390 226.989650 330.237762 227.229091 328.414792 227.468531 326.588598 227.707972 324.759302 227.947413 322.927023 228.186853 321.091882 228.426294 319.253998 228.665734 317.413492 228.905175 315.570483 229.144615 313.725091 229.384056 311.877438 229.623497 310.027642 229.862937 308.175824 230.102378 306.322104 230.341818 304.466601 230.581259 302.609437 230.820699 300.750730 231.060140 298.890602 231.299580 297.029172 231.539021 295.166559 231.778462 293.302886 232.017902 291.438270 232.257343 289.572833 232.496783 287.706694 232.736224 285.839973 232.975664 283.972791 233.215105 282.105268 233.454545 280.237523 233.693986 278.369677 233.933427 276.501849 234.172867 274.634161 234.412308 272.766731 234.651748 270.899680 234.891189 269.033128 235.130629 267.167195 235.370070 265.302001 235.609510 263.437666 235.848951 261.574310 236.088392 259.712054 236.327832 257.851016 236.567273 255.991318 236.806713 254.133080 237.046154 252.276421 237.285594 250.421461 237.525035 248.568321 237.764476 246.717121 238.003916 244.867980 238.243357 243.021019 238.482797 241.176357 238.722238 239.334116 238.961678 237.494414 239.201119 235.657372 239.440559 233.823111 239.680000 231.991749 239.919441 230.163408 240.158881 228.338206 240.398322 226.516265 240.637762 224.697704 240.877203 222.882643 241.116643 221.071203 241.356084 219.263503 241.595524 217.459664 241.834965 215.659805 242.074406 213.864047 242.313846 212.072509 242.553287 210.285312 242.792727 208.502576 243.032168 206.724421 243.271608 204.950967 243.511049 203.182333 243.750490 201.418641 243.989930 199.660009 244.229371 197.906559 244.468811 196.158410 244.708252 194.415682 244.947692 192.678495 245.187133 190.946969 245.426573 189.221225 245.666014 187.501383 245.905455 185.787562 246.144895 184.079882 246.384336 182.378464 246.623776 180.683428 246.863217 178.994893 247.102657 177.312980 247.342098 175.637809 247.581538 173.969500 247.820979 172.308172 248.060420 170.653947 248.299860 169.006944 248.539301 167.367282 248.778741 165.735083 249.018182 164.110466 249.257622 162.493552 249.497063 160.884459 249.736503 159.283309 249.975944 157.690222 250.215385 156.105317 250.454825 154.528714 250.694266 152.960534 250.933706 151.400897 251.173147 149.849922 251.412587 148.307730 251.652028 146.774441 251.891469 145.250175 252.130909 143.735052 252.370350 142.229192 252.609790 140.732714 252.849231 139.245717 253.088671 137.768207 253.328112 136.300166 253.567552 134.841579 253.806993 133.392429 254.046434 131.952699 254.285874 130.522373 254.525315 129.101434 254.764755 127.689866 255.004196 126.287651 255.243636 124.894774 255.483077 123.511218 255.722517 122.136967 255.961958 120.772003 256.201399 119.416310 256.440839 118.069873 256.680280 116.732673 256.919720 115.404695 257.159161 114.085922 257.398601 112.776337 257.638042 111.475924 257.877483 110.184667 258.116923 108.902548 258.356364 107.629552 258.595804 106.365661 258.835245 105.110860 259.074685 103.865131 259.314126 102.628457 259.553566 101.400824 259.793007 100.182213 260.032448 98.972608 260.271888 97.771994 260.511329 96.580352 260.750769 95.397667 260.990210 94.223922 261.229650 93.059101 261.469091 91.903187 261.708531 90.756163 261.947972 89.618013 262.187413 88.488720 262.426853 87.368267 262.666294 86.256639 262.905734 85.153819 263.145175 84.059790 263.384615 82.974535 263.624056 81.898038 263.863497 80.830282 264.102937 79.771251 264.342378 78.720929 264.581818 77.679298 264.821259 76.646342 265.060699 75.622045 265.300140 74.606390 265.539580 73.599360 265.779021 72.600939 266.018462 71.611111 266.257902 70.629858 266.497343 69.657164 266.736783 68.693013 266.976224 67.737389 267.215664 66.790273 267.455105 65.851651 267.694545 64.921505 267.933986 63.999819 268.173427 63.086576 268.412867 62.181760 268.652308 61.285355 268.891748 60.397342 269.131189 59.517707 269.370629 58.646433 269.610070 57.783502 269.849510 56.928898 270.088951 56.082606 270.328392 55.244608 270.567832 54.414887 270.807273 53.593428 271.046713 52.780213 271.286154 51.975226 271.525594 51.178451 271.765035 50.389871 272.004476 49.609468 272.243916 48.837228 272.483357 48.073133 272.722797 47.317167 272.962238 46.569313 273.201678 45.829554 273.441119 45.097874 273.680559 44.374257 273.920000 43.658686 274.159441 42.951143 274.398881 42.251614 274.638322 41.560081 274.877762 40.876528 275.117203 40.200937 275.356643 39.533293 275.596084 38.873579 275.835524 38.221779 276.074965 37.577875 276.314406 36.941852 276.553846 36.313692 276.793287 35.693380 277.032727 35.080898 277.272168 34.476230 277.511608 33.879359 277.751049 33.290270 277.990490 32.708945 278.229930 32.135368 278.469371 31.569522 278.708811 31.011390 278.948252 30.460957 279.187692 29.918206 279.427133 29.383119 279.666573 28.855681 279.906014 28.335875 280.145455 27.823684 280.384895 27.319092 280.624336 26.822082 280.863776 26.332638 281.103217 25.850742 281.342657 25.376380 281.582098 24.909533 281.821538 24.450186 282.060979 23.998322 282.300420 23.553924 282.539860 23.116975 282.779301 22.687460 283.018741 22.265362 283.258182 21.850663 283.497622 21.443349 283.737063 21.043401 283.976503 20.650803 284.215944 20.265539 284.455385 19.887593 284.694825 19.516947 284.934266 19.153586 285.173706 18.797492 285.413147 18.448649 285.652587 18.107040 285.892028 17.772650 286.131469 17.445460 286.370909 17.125456 286.610350 16.812620 286.849790 16.506935 287.089231 16.208386 287.328671 15.916955 287.568112 15.632626 287.807552 15.355383 288.046993 15.085208 288.286434 14.822086 288.525874 14.566000 288.765315 14.316933 289.004755 14.074868 289.244196 13.839790 289.483636 13.611681 289.723077 13.390525 289.962517 13.176305 290.201958 12.969006 290.441399 12.768609 290.680839 12.575100 290.920280 12.388460 291.159720 12.208674 291.399161 12.035726 291.638601 11.869597 291.878042 11.710273 292.117483 11.557736 292.356923 11.411970 292.596364 11.272958 292.835804 11.140684 293.075245 11.015131 293.314685 10.896282 293.554126 10.784122 293.793566 10.678633 294.033007 10.579798 294.272448 10.487603 294.511888 10.402029 294.751329 10.323060 294.990769 10.250680 295.230210 10.184872 295.469650 10.125620 295.709091 10.072906 295.948531 10.026715 296.187972 9.987030 296.427413 9.953834 296.666853 9.927111 296.906294 9.906844 297.145734 9.893017 297.385175 9.885613 297.624615 9.884615 297.864056 9.890008 298.103497 9.901773 298.342937 9.919896 298.582378 9.944359 298.821818 9.975145 299.061259 10.012239 299.300699 10.055624 299.540140 10.105282 299.779580 10.161198 300.019021 10.223355 300.258462 10.291736 300.497902 10.366325 300.737343 10.447105 300.976783 10.534060 301.216224 10.627173 301.455664 10.726427 301.695105 10.831807 301.934545 10.943295 302.173986 11.060875 302.413427 11.184530 302.652867 11.314244 302.892308 11.450001 303.131748 11.591783 303.371189 11.739574 303.610629 11.893357 303.850070 12.053117 304.089510 12.218836 304.328951 12.390498 304.568392 12.568086 304.807832 12.751584 305.047273 12.940975 305.286713 13.136242 305.526154 13.337370 305.765594 13.544341 306.005035 13.757140 306.244476 13.975748 306.483916 14.200151 306.723357 14.430330 306.962797 14.666271 307.202238 14.907955 307.441678 15.155367 307.681119 15.408490 307.920559 15.667308 308.160000 15.931804 308.399441 16.201961 308.638881 16.477762 308.878322 16.759192 309.117762 17.046234 309.357203 17.338871 309.596643 17.637086 309.836084 17.940863 310.075524 18.250186 310.314965 18.565037 310.554406 18.885401 310.793846 19.211261 311.033287 19.542600 311.272727 19.879402 311.512168 20.221649 311.751608 20.569326 311.991049 20.922416 312.230490 21.280903 312.469930 21.644769 312.709371 22.014000 312.948811 22.388587 313.188252 22.768520 313.427692 23.153792 313.667133 23.544396 313.906573 23.940322 314.146014 24.341563 314.385455 24.748111 314.624895 25.159957 314.864336 25.577093 315.103776 25.999513 315.343217 26.427206 315.582657 26.860166 315.822098 27.298383 316.061538 27.741851 316.300979 28.190561 316.540420 28.644504 316.779860 29.103674 317.019301 29.568061 317.258741 30.037658 317.498182 30.512456 317.737622 30.992448 317.977063 31.477625 318.216503 31.967979 318.455944 32.463502 318.695385 32.964187 318.934825 33.470024 319.174266 33.981006 319.413706 34.497125 319.653147 35.018373 319.892587 35.544742 320.132028 36.076223 320.371469 36.612808 320.610909 37.154490 320.850350 37.701260 321.089790 38.253110 321.329231 38.810033 321.568671 39.372019 321.808112 39.939061 322.047552 40.511151 322.286993 41.088281 322.526434 41.670443 322.765874 42.257628 323.005315 42.849828 323.244755 43.447036 323.484196 44.049243 323.723636 44.656442 323.963077 45.268623 324.202517 45.885780 324.441958 46.507903 324.681399 47.134985 324.920839 47.767018 325.160280 48.403994 325.399720 49.045905 325.639161 49.692741 325.878601 50.344497 326.118042 51.001162 326.357483 51.662730 326.596923 52.329192 326.836364 53.000540 327.075804 53.676766 327.315245 54.357861 327.554685 55.043819 327.794126 55.734630 328.033566 56.430287 328.273007 57.130782 328.512448 57.836105 328.751888 58.546251 328.991329 59.261209 329.230769 59.980973 329.470210 60.705533 329.709650 61.434883 329.949091 62.169013 330.188531 62.907917 330.427972 63.651585 330.667413 64.400009 330.906853 65.153183 331.146294 65.911096 331.385734 66.673742 331.625175 67.441113 331.864615 68.213199 332.104056 68.989994 332.343497 69.771488 332.582937 70.557675 332.822378 71.348545 333.061818 72.144091 333.301259 72.944305 333.540699 73.749178 333.780140 74.558703 334.019580 75.372871 334.259021 76.191675 334.498462 77.015105 334.737902 77.843155 334.977343 78.675816 335.216783 79.513080 335.456224 80.354938 335.695664 81.201384 335.935105 82.052408 336.174545 82.908002 336.413986 83.768159 336.653427 84.632871 336.892867 85.502129 337.132308 86.375925 337.371748 87.254251 337.611189 88.137099 337.850629 89.024462 338.090070 89.916330 338.329510 90.812696 338.568951 91.713551 338.808392 92.618889 339.047832 93.528699 339.287273 94.442975 339.526713 95.361709 339.766154 96.284892 340.005594 97.212516 340.245035 98.144573 340.484476 99.081055 340.723916 100.021954 340.963357 100.967261 341.202797 101.916970 341.442238 102.871071 341.681678 103.829556 341.921119 104.792419 342.160559 105.759649 342.400000 106.731240 342.639441 107.707183 342.878881 108.687470 343.118322 109.672093 343.357762 110.661043 343.597203 111.654314 343.836643 112.651897 344.076084 113.653783 344.315524 114.659965 344.554965 115.670434 344.794406 116.685182 345.033846 117.704202 345.273287 118.727485 345.512727 119.755024 345.752168 120.786809 345.991608 121.822833 346.231049 122.863088 346.470490 123.907566 346.709930 124.956259 346.949371 126.009158 347.188811 127.066255 347.428252 128.127543 347.667692 129.193014 347.907133 130.262658 348.146573 131.336469 348.386014 132.414438 348.625455 133.496557 348.864895 134.582817 349.104336 135.673212 349.343776 136.767732 349.583217 137.866370 349.822657 138.969117 350.062098 140.075966 350.301538 141.186908 350.540979 142.301935 350.780420 143.421039 351.019860 144.544213 351.259301 145.671447 351.498741 146.802735 351.738182 147.938067 351.977622 149.077436 352.217063 150.220834 352.456503 151.368252 352.695944 152.519683 352.935385 153.675118 353.174825 154.834549 353.414266 155.997968 353.653706 157.165368 353.893147 158.336740 354.132587 159.512075 354.372028 160.691366 354.611469 161.874606 354.850909 163.061784 355.090350 164.252895 355.329790 165.447929 355.569231 166.646878 355.808671 167.849734 356.048112 169.056490 356.287552 170.267137 356.526993 171.481667 356.766434 172.700072 357.005874 173.922343 357.245315 175.148474 357.484755 176.378455 357.724196 177.612279 357.963636 178.849937 358.203077 180.091422 358.442517 181.336725 358.681958 182.585838 358.921399 183.838753 359.160839 185.095463 359.400280 186.355958 359.639720 187.620232 359.879161 188.888275 360.118601 190.160080 360.358042 191.435638 360.597483 192.714942 360.836923 193.997983 361.076364 195.284754 361.315804 196.575246 361.555245 197.869451 361.794685 199.167362 362.034126 200.468969 362.273566 201.774265 362.513007 203.083242 362.752448 204.395892 362.991888 205.712206 363.231329 207.032177 363.470769 208.355796 363.710210 209.683056 363.949650 211.013948 364.189091 212.348464 364.428531 213.686597 364.667972 215.028337 364.907413 216.373677 365.146853 217.722610 365.386294 219.075125 365.625734 220.431217 365.865175 221.790876 366.104615 223.154095 366.344056 224.520865 366.583497 225.891178 366.822937 227.265027 367.062378 228.642402 367.301818 230.023297 367.541259 231.407703 367.780699 232.795611 368.020140 234.187015 368.259580 235.581905 368.499021 236.980273 368.738462 238.382112 368.977902 239.787414 369.217343 241.196170 369.456783 242.608372 369.696224 244.024012 369.935664 245.443082 370.175105 246.865574 370.414545 248.291481 370.653986 249.720793 370.893427 251.153502 371.132867 252.589602 371.372308 254.029082 371.611748 255.471937 371.851189 256.918156 372.090629 258.367733 372.330070 259.820659 372.569510 261.276913 372.808951 262.736420 373.048392 264.199091 373.287832 265.664838 373.527273 267.133574 373.766713 268.605209 374.006154 270.079655 374.245594 271.556825 374.485035 273.036630 374.724476 274.518981 374.963916 276.003791 375.203357 277.490970 375.442797 278.980432 375.682238 280.472087 375.921678 281.965847 376.161119 283.461624 376.400559 284.959330 376.640000 286.458876 376.879441 287.960174 377.118881 289.463137 377.358322 290.967674 377.597762 292.473699 377.837203 293.981124 378.076643 295.489859 378.316084 296.999816 378.555524 298.510908 378.794965 300.023045 379.034406 301.536141 379.273846 303.050105 379.513287 304.564851 379.752727 306.080290 379.992168 307.596333 380.231608 309.112892 380.471049 310.629880 380.710490 312.147207 380.949930 313.664786 381.189371 315.182528 381.428811 316.700344 381.668252 318.218148 381.907692 319.735850 382.147133 321.253361 382.386573 322.770595 382.626014 324.287462 382.865455 325.803875 383.104895 327.319745 383.344336 328.834983 383.583776 330.349501 383.823217 331.863212 384.062657 333.376027 384.302098 334.887857 384.541538 336.398615 384.780979 337.908212 385.020420 339.416559 385.259860 340.923569 385.499301 342.429154 385.738741 343.933224 385.978182 345.435692 386.217622 346.936469 386.457063 348.435468 386.696503 349.932599 386.935944 351.427775 387.175385 352.920908 387.414825 354.411908 387.654266 355.900688 387.893706 357.387160 388.133147 358.871234 388.372587 360.352824 388.612028 361.831841 388.851469 363.308196 389.090909 364.781800 389.330350 366.252567 389.569790 367.720408 389.809231 369.185233 390.048671 370.646956 390.288112 372.105487 390.527552 373.560739 390.766993 375.012623 391.006434 376.461051 391.245874 377.905935 391.485315 379.347186 391.724755 380.784716 391.964196 382.218437 392.203636 383.648261 392.443077 385.074098 392.682517 386.495862 392.921958 387.913464 393.161399 389.326814 393.400839 390.735827 393.640280 392.140412 393.879720 393.540481 394.119161 394.935947 394.358601 396.326721 394.598042 397.712715 394.837483 399.093840 395.076923 400.470009 395.316364 401.841132 395.555804 403.207123 395.795245 404.567891 396.034685 405.923350 396.274126 407.273411 396.513566 408.617985 396.753007 409.956985 396.992448 411.290321 397.231888 412.617907 397.471329 413.939653 397.710769 415.255471 397.950210 416.565273 398.189650 417.868970 398.429091 419.166476 398.668531 420.457700 398.907972 421.742555 399.147413 423.020953 399.386853 424.292805 399.626294 425.558023 399.865734 426.816518 400.105175 428.068204 400.344615 429.312990 400.584056 430.550789 400.823497 431.781513 401.062937 433.005074 401.302378 434.221382 401.541818 435.430350 401.781259 436.631890 402.020699 437.825913 402.260140 439.012331 402.499580 440.191056 402.739021 441.362000 402.978462 442.525073 403.217902 443.680188 403.457343 444.827257 403.696783 445.966192 403.936224 447.096903 404.175664 448.219303 404.415105 449.333304 404.654545 450.438817 404.893986 451.535754 405.133427 452.624026 405.372867 453.703546 405.612308 454.774226 405.851748 455.835976 406.091189 456.888708 406.330629 457.932335 406.570070 458.966768 406.809510 459.991919 407.048951 461.007700 407.288392 462.014021 407.527832 463.010796 407.767273 463.997935 408.006713 464.975350 408.246154 465.942954 408.485594 466.900658 408.725035 467.848373 408.964476 468.786011 409.203916 469.713485 409.443357 470.630705 409.682797 471.537583 409.922238 472.434032 410.161678 473.319963 410.401119 474.195288 410.640559 475.059917 410.880000 475.913764 411.119441 476.756740 411.358881 477.588756 411.598322 478.409725 411.837762 479.219558 412.077203 480.018166 412.316643 480.805462 412.556084 481.581356 412.795524 482.345762 413.034965 483.098591 413.274406 483.839754 413.513846 484.569162 413.753287 485.286729 413.992727 485.992365 414.232168 486.685983 414.471608 487.367493 414.711049 488.036808 414.950490 488.693840 415.189930 489.338500 415.429371 489.970699 415.668811 490.590351 415.908252 491.197365 416.147692 491.791655 416.387133 492.373131 416.626573 492.941706 416.866014 493.497291 417.105455 494.039798 417.344895 494.569139 417.584336 495.085225 417.823776 495.587968 418.063217 496.077280 418.302657 496.553073 418.542098 497.015258 418.781538 497.463747 419.020979 497.898452 419.260420 498.319284 419.499860 498.726155 419.739301 499.118978 419.978741 499.497663 420.218182 499.862122 420.457622 500.212268 420.697063 500.548011 420.936503 500.869264 421.175944 501.175938 421.415385 501.467945 421.654825 501.745197 421.894266 502.007605 422.133706 502.255082 422.373147 502.487538 422.612587 502.704886 422.852028 502.907038 423.091469 503.093904 423.330909 503.265398 423.570350 503.421430 423.809790 503.561912 424.049231 503.686756 424.288671 503.795874 424.528112 503.889177 424.767552 503.966577 425.006993 504.027986 425.246434 504.073316 425.485874 504.102478 425.725315 504.115385 425.964755 504.111947 426.204196 504.092076 426.443636 504.055685 426.683077 504.002685 426.922517 503.932987 427.161958 503.846504 427.401399 503.743147 427.640839 503.622828 427.880280 503.485458 428.119720 503.330950 428.359161 503.159214 428.598601 502.970164 428.838042 502.763710 429.077483 502.539764 429.316923 502.298238 429.556364 502.039044 429.795804 501.762093 430.035245 501.467297 430.274685 501.154568 430.514126 500.823818 430.753566 500.474957 430.993007 500.107899 431.232448 499.722555 431.471888 499.318836 431.711329 498.896654 431.950769 498.455922 432.190210 497.996549 432.429650 497.518486 432.669091 497.021828 432.908531 496.506708 433.147972 495.973257 433.387413 495.421609 433.626853 494.851895 433.866294 494.264250 434.105734 493.658804 434.345175 493.035692 434.584615 492.395044 434.824056 491.736994 435.063497 491.061675 435.302937 490.369218 435.542378 489.659757 435.781818 488.933424 436.021259 488.190351 436.260699 487.430671 436.500140 486.654516 436.739580 485.862020 436.979021 485.053314 437.218462 484.228532 437.457902 483.387805 437.697343 482.531266 437.936783 481.659049 438.176224 480.771284 438.415664 479.868105 438.655105 478.949645 438.894545 478.016036 439.133986 477.067410 439.373427 476.103900 439.612867 475.125638 439.852308 474.132758 440.091748 473.125391 440.331189 472.103671 440.570629 471.067729 440.810070 470.017699 441.049510 468.953712 441.288951 467.875901 441.528392 466.784400 441.767832 465.679340 442.007273 464.560853 442.246713 463.429074 442.486154 462.284133 442.725594 461.126164 442.965035 459.955299 443.204476 458.771670 443.443916 457.575411 443.683357 456.366654 443.922797 455.145530 444.162238 453.912174 444.401678 452.666717 444.641119 451.409292 444.880559 450.140031 445.120000 448.859067 445.359441 447.566533 445.598881 446.262560 445.838322 444.947283 446.077762 443.620832 446.317203 442.283341 446.556643 440.934942 446.796084 439.575768 447.035524 438.205951 447.274965 436.825624 447.514406 435.434920 447.753846 434.033970 447.993287 432.622908 448.232727 431.201866 448.472168 429.770976 448.711608 428.330371 448.951049 426.880184 449.190490 425.420547 449.429930 423.951593 449.669371 422.473454 449.908811 420.986262 450.148252 419.490151 450.387692 417.985253 450.627133 416.471700 450.866573 414.949625 451.106014 413.419161 451.345455 411.880439 451.584895 410.333593 451.824336 408.778755 452.063776 407.216058 452.303217 405.645634 452.542657 404.067615 452.782098 402.482135 453.021538 400.889325 453.260979 399.289319 453.500420 397.682249 453.739860 396.068247 453.979301 394.447446 454.218741 392.819978 454.458182 391.185977 454.697622 389.545574 454.937063 387.898902 455.176503 386.246094 455.415944 384.587282 455.655385 382.922598 455.894825 381.252176 456.134266 379.576148 456.373706 377.894645 456.613147 376.207802 456.852587 374.515750 457.092028 372.818623 457.331469 371.116551 457.570909 369.409669 457.810350 367.698108 458.049790 365.982001 458.289231 364.261481 458.528671 362.536680 458.768112 360.807731 459.007552 359.074766 459.246993 357.337918 459.486434 355.597319 459.725874 353.853102 459.965315 352.105400 460.204755 350.354344 460.444196 348.600068 460.683636 346.842704 460.923077 345.082385 461.162517 343.319242 461.401958 341.553410 461.641399 339.785019 461.880839 338.014203 462.120280 336.241095 462.359720 334.465826 462.599161 332.688530 462.838601 330.909339 463.078042 329.128385 463.317483 327.345801 463.556923 325.561719 463.796364 323.776273 464.035804 321.989594 464.275245 320.201815 464.514685 318.413069 464.754126 316.623488 464.993566 314.833205 465.233007 313.042352 465.472448 311.251062 465.711888 309.459468 465.951329 307.667701 466.190769 305.875895 466.430210 304.084181 466.669650 302.292694 466.909091 300.501564 467.148531 298.710925 467.387972 296.920909 467.627413 295.131649 467.866853 293.343277 468.106294 291.555925 468.345734 289.769727 468.585175 287.984815 468.824615 286.201322 469.064056 284.419379 469.303497 282.639119 469.542937 280.860676 469.782378 279.084181 470.021818 277.309768 470.261259 275.537567 470.500699 273.767713 470.740140 272.000338 470.979580 270.235574 471.219021 268.473554 471.458462 266.714410 471.697902 264.958275 471.937343 263.205281 472.176783 261.455562 472.416224 259.709248 472.655664 257.966474 472.895105 256.227372 473.134545 254.492073 473.373986 252.760711 473.613427 251.033418 473.852867 249.310327 474.092308 247.591571 474.331748 245.877281 474.571189 244.167590 474.810629 242.462631 475.050070 240.762537 475.289510 239.067439 475.528951 237.377472 475.768392 235.692766 476.007832 234.013454 476.247273 232.339670 476.486713 230.671546 476.726154 229.009213 476.965594 227.352806 477.205035 225.702455 477.444476 224.058295 477.683916 222.420457 477.923357 220.789073 478.162797 219.164277 478.402238 217.546201 478.641678 215.934978 478.881119 214.330740 479.120559 212.733619 479.360000 211.143748 479.599441 209.561260 479.838881 207.986288 480.078322 206.418963 480.317762 204.859418 480.557203 203.307786 480.796643 201.764199 481.036084 200.228791 481.275524 198.701693 481.514965 197.183037 481.754406 195.672958 481.993846 194.171586 482.233287 192.679055 482.472727 191.195497 482.712168 189.721045 482.951608 188.255831 483.191049 186.799988 483.430490 185.353648 483.669930 183.916944 483.909371 182.490008 484.148811 181.072973 484.388252 179.665972 484.627692 178.269137 484.867133 176.882600 485.106573 175.506494 485.346014 174.140952 485.585455 172.786106 485.824895 171.442089 486.064336 170.109033 486.303776 168.787071 486.543217 167.476335 486.782657 166.176958 487.022098 164.889072 487.261538 163.612811 487.500979 162.348306 487.740420 161.095689 487.979860 159.855095 488.219301 158.626654 488.458741 157.410500 488.698182 156.206765 488.937622 155.015582 489.177063 153.837084 489.416503 152.671402 489.655944 151.518669 489.895385 150.379018 490.134825 149.252582 490.374266 148.139492 490.613706 147.039882 490.853147 145.953885 491.092587 144.881631 491.332028 143.823255 491.571469 142.778888 491.810909 141.748664 492.050350 140.732714 492.289790 139.731137 492.529231 138.743891 492.768671 137.770900 493.008112 136.812089 493.247552 135.867380 493.486993 134.936699 493.726434 134.019968 493.965874 133.117113 494.205315 132.228056 494.444755 131.352722 494.684196 130.491035 494.923636 129.642919 495.163077 128.808298 495.402517 127.987095 495.641958 127.179235 495.881399 126.384641 496.120839 125.603238 496.360280 124.834949 496.599720 124.079699 496.839161 123.337412 497.078601 122.608010 497.318042 121.891419 497.557483 121.187562 497.796923 120.496364 498.036364 119.817748 498.275804 119.151637 498.515245 118.497957 498.754685 117.856631 498.994126 117.227583 499.233566 116.610737 499.473007 116.006016 499.712448 115.413346 499.951888 114.832649 500.191329 114.263851 500.430769 113.706874 500.670210 113.161642 500.909650 112.628080 501.149091 112.106112 501.388531 111.595661 501.627972 111.096652 501.867413 110.609008 502.106853 110.132654 502.346294 109.667513 502.585734 109.213510 502.825175 108.770567 503.064615 108.338610 503.304056 107.917562 503.543497 107.507347 503.782937 107.107889 504.022378 106.719113 504.261818 106.340941 504.501259 105.973298 504.740699 105.616108 504.980140 105.269295 505.219580 104.932783 505.459021 104.606495 505.698462 104.290357 505.937902 103.984291 506.177343 103.688221 506.416783 103.402072 506.656224 103.125768 506.895664 102.859232 507.135105 102.602389 507.374545 102.355162 507.613986 102.117475 507.853427 101.889253 508.092867 101.670419 508.332308 101.460897 508.571748 101.260612 508.811189 101.069486 509.050629 100.887445 509.290070 100.714411 509.529510 100.550310 509.768951 100.395064 510.008392 100.248599 510.247832 100.110837 510.487273 99.981703 510.726713 99.861121 510.966154 99.749015 511.205594 99.645308 511.445035 99.549925 511.684476 99.462790 511.923916 99.383826 512.163357 99.312957 512.402797 99.250108 512.642238 99.195203 512.881678 99.148164 513.121119 99.108918 513.360559 99.077386 513.600000 99.053493 513.839441 99.037164 514.078881 99.028322 514.318322 99.026891 514.557762 99.032795 514.797203 99.045958 515.036643 99.066304 515.276084 99.093757 515.515524 99.128240 515.754965 99.169679 515.994406 99.217996 516.233846 99.273116 516.473287 99.334963 516.712727 99.403460 516.952168 99.478532 517.191608 99.560102 517.431049 99.648095 517.670490 99.742435 517.909930 99.843044 518.149371 99.949848 518.388811 100.062771 518.628252 100.181736 518.867692 100.306666 519.107133 100.437487 519.346573 100.574123 519.586014 100.716496 519.825455 100.864531 520.064895 101.018153 520.304336 101.177284 520.543776 101.341849 520.783217 101.511772 521.022657 101.686977 521.262098 101.867388 521.501538 102.052928 521.740979 102.243522 521.980420 102.439093 522.219860 102.639567 522.459301 102.844865 522.698741 103.054914 522.938182 103.269635 523.177622 103.488954 523.417063 103.712795 523.656503 103.941081 523.895944 104.173736 524.135385 104.410684 524.374825 104.651849 524.614266 104.897156 524.853706 105.146528 525.093147 105.399888 525.332587 105.657162 525.572028 105.918272 525.811469 106.183144 526.050909 106.451700 526.290350 106.723865 526.529790 106.999563 526.769231 107.278718 527.008671 107.561253 527.248112 107.847093 527.487552 108.136162 527.726993 108.428383 527.966434 108.723681 528.205874 109.021979 528.445315 109.323201 528.684755 109.627272 528.924196 109.934115 529.163636 110.243654 529.403077 110.555814 529.642517 110.870517 529.881958 111.187689 530.121399 111.507253 530.360839 111.829133 530.600280 112.153253 530.839720 112.479537 531.079161 112.807909 531.318601 113.138293 531.558042 113.470612 531.797483 113.804791 532.036923 114.140754 532.276364 114.478425 532.515804 114.817727 532.755245 115.158585 532.994685 115.500923 533.234126 115.844664 533.473566 116.189732 533.713007 116.536052 533.952448 116.883547 534.191888 117.232141 534.431329 117.581759 534.670769 117.932324 534.910210 118.283760 535.149650 118.635991 535.389091 118.988941 535.628531 119.342534 535.867972 119.696695 536.107413 120.051346 536.346853 120.406412 536.586294 120.761817 536.825734 121.117485 537.065175 121.473340 537.304615 121.829305 537.544056 122.185305 537.783497 122.541263 538.022937 122.897105 538.262378 123.252752 538.501818 123.608130 538.741259 123.963163 538.980699 124.317774 539.220140 124.671888 539.459580 125.025427 539.699021 125.378317 539.938462 125.730481 540.177902 126.081844 540.417343 126.432328 540.656783 126.781859 540.896224 127.130359 541.135664 127.477754 541.375105 127.823967 541.614545 128.168921 541.853986 128.512541 542.093427 128.854751 542.332867 129.195475 542.572308 129.534637 542.811748 129.872160 543.051189 130.207969 543.290629 130.541988 543.530070 130.874140 543.769510 131.204349 544.008951 131.532540 544.248392 131.858636 544.487832 132.182562 544.727273 132.504241 544.966713 132.823597 545.206154 133.140555 545.445594 133.455037 545.685035 133.766969 545.924476 134.076274 546.163916 134.382876 546.403357 134.686699 546.642797 134.987667 546.882238 135.285704 547.121678 135.580733 547.361119 135.872680 547.600559 136.161467 547.840000 136.447019 548.079441 136.729259 548.318881 137.008112 548.558322 137.283502 548.797762 137.555352 549.037203 137.823587 549.276643 138.088130 549.516084 138.348906 549.755524 138.605838 549.994965 138.858850 550.234406 139.107867 550.473846 139.352812 550.713287 139.593609 550.952727 139.830182 551.192168 140.062455 551.431608 140.290352 551.671049 140.513797 551.910490 140.732714 552.149930 140.947046 552.389371 141.156808 552.628811 141.362034 552.868252 141.562760 553.107692 141.759020 553.347133 141.950847 553.586573 142.138278 553.826014 142.321345 554.065455 142.500084 554.304895 142.674529 554.544336 142.844714 554.783776 143.010675 555.023217 143.172444 555.262657 143.330057 555.502098 143.483549 555.741538 143.632953 555.980979 143.778305 556.220420 143.919638 556.459860 144.056987 556.699301 144.190386 556.938741 144.319871 557.178182 144.445475 557.417622 144.567233 557.657063 144.685179 557.896503 144.799348 558.135944 144.909774 558.375385 145.016492 558.614825 145.119536 558.854266 145.218940 559.093706 145.314740 559.333147 145.406969 559.572587 145.495662 559.812028 145.580853 560.051469 145.662577 560.290909 145.740869 560.530350 145.815762 560.769790 145.887291 561.009231 145.955492 561.248671 146.020397 561.488112 146.082042 561.727552 146.140460 561.966993 146.195688 562.206434 146.247758 562.445874 146.296706 562.685315 146.342565 562.924755 146.385371 563.164196 146.425157 563.403636 146.461959 563.643077 146.495810 563.882517 146.526745 564.121958 146.554799 564.361399 146.580006 564.600839 146.602401 564.840280 146.622017 565.079720 146.638889 565.319161 146.653053 565.558601 146.664542 565.798042 146.673390 566.037483 146.679632 566.276923 146.683304 566.516364 146.684438 566.755804 146.683070 566.995245 146.679234 567.234685 146.672964 567.474126 146.664295 567.713566 146.653261 567.953007 146.639898 568.192448 146.624238 568.431888 146.606317 568.671329 146.586170 568.910769 146.563830 569.150210 146.539332 569.389650 146.512710 569.629091 146.484000 569.868531 146.453234 570.107972 146.420449 570.347413 146.385678 570.586853 146.348956 570.826294 146.310317 571.065734 146.269796 571.305175 146.227427 571.544615 146.183245 571.784056 146.137283 572.023497 146.089577 572.262937 146.040161 572.502378 145.989069 572.741818 145.936337 572.981259 145.881997 573.220699 145.826086 573.460140 145.768636 573.699580 145.709683 573.939021 145.649262 574.178462 145.587405 574.417902 145.524149 574.657343 145.459528 574.896783 145.393575 575.136224 145.326326 575.375664 145.257814 575.615105 145.188075 575.854545 145.117142 576.093986 145.045051 576.333427 144.971836 576.572867 144.897530 576.812308 144.822169 577.051748 144.745787 577.291189 144.668419 577.530629 144.590098 577.770070 144.510860 578.009510 144.430738 578.248951 144.349768 578.488392 144.267984 578.727832 144.185420 578.967273 144.102110 579.206713 144.018089 579.446154 143.933392 579.685594 143.848053 579.925035 143.762107 580.164476 143.675587 580.403916 143.588529 580.643357 143.500966 580.882797 143.412934 581.122238 143.324466 581.361678 143.235598 581.601119 143.146363 581.840559 143.056797 582.080000 142.966932 582.319441 142.876805 582.558881 142.786449 582.798322 142.695899 583.037762 142.605190 583.277203 142.514355 583.516643 142.423429 583.756084 142.332447 583.995524 142.241444 584.234965 142.150452 584.474406 142.059508 584.713846 141.968646 584.953287 141.877899 585.192727 141.787303 585.432168 141.696891 585.671608 141.606699 585.911049 141.516761 586.150490 141.427111 586.389930 141.337783 586.629371 141.248813 586.868811 141.160234 587.108252 141.072081 587.347692 140.984389 587.587133 140.897192 587.826573 140.810524 588.066014 140.724420 588.305455 140.638914 588.544895 140.554041 588.784336 140.469835 589.023776 140.386331 589.263217 140.303563 589.502657 140.221566 589.742098 140.140373 589.981538 140.060020 590.220979 139.980541 590.460420 139.901970 590.699860 139.824342 590.939301 139.747692 591.178741 139.672053 591.418182 139.597460 591.657622 139.523948 591.897063 139.451551 592.136503 139.380303 592.375944 139.310240 592.615385 139.241395 592.854825 139.173803 593.094266 139.107498 593.333706 139.042515 593.573147 138.978888 593.812587 138.916652 594.052028 138.855841 594.291469 138.796490 594.530909 138.738633 594.770350 138.682304 595.009790 138.627539 595.249231 138.574371 595.488671 138.522834 595.728112 138.472964 595.967552 138.424795 596.206993 138.378361 596.446434 138.333697 596.685874 138.290837 596.925315 138.249815 597.164755 138.210667 597.404196 138.173426 597.643636 138.138127 597.883077 138.104804 598.122517 138.073492 598.361958 138.044226 598.601399 138.017039 598.840839 137.991967 599.080280 137.969043 599.319720 137.948303 599.559161 137.929779 599.798601 137.913508 600.038042 137.899524 600.277483 137.887860 600.516923 137.878552 600.756364 137.871634 600.995804 137.867140 601.235245 137.865105 601.474685 137.865563 601.714126 137.868548 601.953566 137.874096 602.193007 137.882240 602.432448 137.893015 602.671888 137.906456 602.911329 137.922597 603.150769 137.941472 603.390210 137.963116 603.629650 137.987563 603.869091 138.014848 604.108531 138.045005 604.347972 138.078069 604.587413 138.114074 604.826853 138.153054 605.066294 138.195044 605.305734 138.240079 605.545175 138.288193 605.784615 138.339420 606.024056 138.393795 606.263497 138.451352 606.502937 138.512126 606.742378 138.576151 606.981818 138.643462 607.221259 138.714093 607.460699 138.788078 607.700140 138.865452 607.939580 138.946250 608.179021 139.030506 608.418462 139.118253 608.657902 139.209528 608.897343 139.304364 609.136783 139.402796 609.376224 139.504858 609.615664 139.610584 609.855105 139.720010 610.094545 139.833169 610.333986 139.950096 610.573427 140.070825 610.812867 140.195391 611.052308 140.323829 611.291748 140.456172 611.531189 140.592456 611.770629 140.732714 612.010070 140.876973 612.249510 141.025225 612.488951 141.177455 612.728392 141.333645 612.967832 141.493780 613.207273 141.657844 613.446713 141.825821 613.686154 141.997695 613.925594 142.173450 614.165035 142.353070 614.404476 142.536538 614.643916 142.723839 614.883357 142.914957 615.122797 143.109875 615.362238 143.308578 615.601678 143.511050 615.841119 143.717274 616.080559 143.927235 616.320000 144.140916 616.559441 144.358302 616.798881 144.579376 617.038322 144.804122 617.277762 145.032525 617.517203 145.264568 617.756643 145.500235 617.996084 145.739511 618.235524 145.982379 618.474965 146.228823 618.714406 146.478827 618.953846 146.732375 619.193287 146.989451 619.432727 147.250039 619.672168 147.514123 619.911608 147.781687 620.151049 148.052715 620.390490 148.327191 620.629930 148.605098 620.869371 148.886422 621.108811 149.171145 621.348252 149.459251 621.587692 149.750726 621.827133 150.045552 622.066573 150.343714 622.306014 150.645195 622.545455 150.949980 622.784895 151.258052 623.024336 151.569396 623.263776 151.883995 623.503217 152.201834 623.742657 152.522896 623.982098 152.847165 624.221538 153.174625 624.460979 153.505261 624.700420 153.839056 624.939860 154.175994 625.179301 154.516059 625.418741 154.859236 625.658182 155.205507 625.897622 155.554857 626.137063 155.907271 626.376503 156.262731 626.615944 156.621222 626.855385 156.982728 627.094825 157.347233 627.334266 157.714721 627.573706 158.085175 627.813147 158.458580 628.052587 158.834920 628.292028 159.214179 628.531469 159.596340 628.770909 159.981388 629.010350 160.369306 629.249790 160.760079 629.489231 161.153690 629.728671 161.550124 629.968112 161.949364 630.207552 162.351394 630.446993 162.756199 630.686434 163.163762 630.925874 163.574067 631.165315 163.987099 631.404755 164.402840 631.644196 164.821276 631.883636 165.242390 632.123077 165.666166 632.362517 166.092588 632.601958 166.521640 632.841399 166.953306 633.080839 167.387570 633.320280 167.824416 633.559720 168.263827 633.799161 168.705789 634.038601 169.150284 634.278042 169.597297 634.517483 170.046811 634.756923 170.498812 634.996364 170.953282 635.235804 171.410205 635.475245 171.869566 635.714685 172.331349 635.954126 172.795537 636.193566 173.262114 636.433007 173.731065 636.672448 174.202373 636.911888 174.676023 637.151329 175.151998 637.390769 175.630282 637.630210 176.110860 637.869650 176.593714 638.109091 177.078830 638.348531 177.566191 638.587972 178.055781 638.827413 178.547584 639.066853 179.041584 639.306294 179.537765 639.545734 180.036111 639.785175 180.536605 640.024615 181.039233 640.264056 181.543978 640.503497 182.050823 640.742937 182.559753 640.982378 183.070752 641.221818 183.583803 641.461259 184.098891 641.700699 184.616000 641.940140 185.135113 642.179580 185.656215 642.419021 186.179289 642.658462 186.704320 642.897902 187.231291 643.137343 187.760186 643.376783 188.290990 643.616224 188.823686 643.855664 189.358259 644.095105 189.894691 644.334545 190.432968 644.573986 190.973073 644.813427 191.514991 645.052867 192.058704 645.292308 192.604197 645.531748 193.151455 645.771189 193.700460 646.010629 194.251197 646.250070 194.803650 646.489510 195.357803 646.728951 195.913640 646.968392 196.471145 647.207832 197.030302 647.447273 197.591094 647.686713 198.153506 647.926154 198.717521 648.165594 199.283124 648.405035 199.850299 648.644476 200.419029 648.883916 200.989299 649.123357 201.561092 649.362797 202.134393 649.602238 202.709185 649.841678 203.285453 650.081119 203.863180 650.320559 204.442350 650.560000 205.022947 650.799441 205.604955 651.038881 206.188359 651.278322 206.773142 651.517762 207.359288 651.757203 207.946781 651.996643 208.535605 652.236084 209.125744 652.475524 209.717182 652.714965 210.309903 652.954406 210.903891 653.193846 211.499130 653.433287 212.095603 653.672727 212.693296 653.912168 213.292191 654.151608 213.892272 654.391049 214.493525 654.630490 215.095932 654.869930 215.699477 655.109371 216.304146 655.348811 216.909920 655.588252 217.516785 655.827692 218.124725 656.067133 218.733723 656.306573 219.343764 656.546014 219.954830 656.785455 220.566907 657.024895 221.179979 657.264336 221.794028 657.503776 222.409040 657.743217 223.024998 657.982657 223.641886 658.222098 224.259688 658.461538 224.878388 658.700979 225.497970 658.940420 226.118419 659.179860 226.739717 659.419301 227.361849 659.658741 227.984799 659.898182 228.608550 660.137622 229.233088 660.377063 229.858395 660.616503 230.484456 660.855944 231.111254 661.095385 231.738775 661.334825 232.367001 661.574266 232.995916 661.813706 233.625505 662.053147 234.255751 662.292587 234.886639 662.532028 235.518153 662.771469 236.150275 663.010909 236.782992 663.250350 237.416285 663.489790 238.050140 663.729231 238.684540 663.968671 239.319469 664.208112 239.954911 664.447552 240.590850 664.686993 241.227271 664.926434 241.864157 665.165874 242.501491 665.405315 243.139259 665.644755 243.777443 665.884196 244.416029 666.123636 245.054999 666.363077 245.694338 666.602517 246.334030 666.841958 246.974059 667.081399 247.614409 667.320839 248.255063 667.560280 248.896006 667.799720 249.537221 668.039161 250.178693 668.278601 250.820406 668.518042 251.462343 668.757483 252.104489 668.996923 252.746827 669.236364 253.389341 669.475804 254.032016 669.715245 254.674835 669.954685 255.317782 670.194126 255.960842 670.433566 256.603998 670.673007 257.247234 670.912448 257.890534 671.151888 258.533883 671.391329 259.177263 671.630769 259.820659 671.630769 514.000000" /></g></g><g class="titles"><text class="title plot_title" x="400.0" y="26">อัตราการว่างงาน ทั่วราชอาณาจักร</text></g><g class="plot overlay" transform="translate(95, 46)"><g class="series serie-0 color-0"><g class="dots"><circle class="dot reactive tooltip-trigger" cx="13.169230769230769" cy="378.9086043524687" r="2.5" /><desc class="value">0.7</desc><desc class="x top">13.169230769230769</desc><desc class="y top">378.9086043524687</desc><desc class="x_label">2556/1</desc></g><g class="dots"><circle class="dot reactive tooltip-trigger" cx="73.02937062937062" cy="378.9086043524687" r="2.5" /><desc class="value">0.7</desc><desc class="x top">73.02937062937062</desc><desc class="y top">378.9086043524687</desc><desc class="x_label">2556/2</desc></g><g class="dots"><circle class="dot reactive tooltip-trigger" cx="132.88951048951049" cy="259.82065934607624" r="2.5" /><desc class="value">0.8</desc><desc class="x top">132.88951048951049</desc><desc class="y top">259.82065934607624</desc><desc class="x_label">2556/3</desc></g><g class="dots"><circle class="dot reactive tooltip-trigger" cx="192.74965034965032" cy="497.99654935886116" r="2.5" /><desc class="value">0.6</desc><desc class="x top">192.74965034965032</desc><desc class="y top">497.99654935886116</desc><desc class="x_label">2556/4</desc></g><g class="dots"><circle class="dot reactive tooltip-trigger" cx="252.60979020979022" cy="140.73271433968387" r="2.5" /><desc class="value">0.9</desc><desc class="x ">252.60979020979022</desc><desc class="y ">140.73271433968387</desc><desc class="x_label">2557/1</desc></g><g class="dots"><circle class="dot reactive tooltip-trigger" cx="312.46993006993006" cy="21.644769333291492" r="2.5" /><desc class="value">1</desc><desc class="x ">312.46993006993006</desc><desc class="y ">21.644769333291492</desc><desc class="x_label">2557/2</desc></g><g class="dots"><circle class="dot reactive tooltip-trigger" cx="372.33006993006984" cy="259.82065934607624" r="2.5" /><desc class="value">0.8</desc><desc class="x left top">372.33006993006984</desc><desc class="y left top">259.82065934607624</desc><desc class="x_label">2557/3</desc></g><g class="dots"><circle class="dot reactive tooltip-trigger" cx="432.1902097902098" cy="497.99654935886116" r="2.5" /><desc class="value">0.6</desc><desc class="x left top">432.1902097902098</desc><desc class="y left top">497.99654935886116</desc><desc class="x_label">2557/4</desc></g><g class="dots"><circle class="dot reactive tooltip-trigger" cx="492.05034965034963" cy="140.73271433968387" r="2.5" /><desc class="value">0.9</desc><desc class="x left">492.05034965034963</desc><desc class="y left">140.73271433968387</desc><desc class="x_label">2558/1</desc></g><g class="dots"><circle class="dot reactive tooltip-trigger" cx="551.9104895104895" cy="140.73271433968387" r="2.5" /><desc class="value">0.9</desc><desc class="x left">551.9104895104895</desc><desc class="y left">140.73271433968387</desc><desc class="x_label">2558/2</desc></g><g class="dots"><circle class="dot reactive tooltip-trigger" cx="611.7706293706293" cy="140.73271433968387" r="2.5" /><desc class="value">0.9</desc><desc class="x left">611.7706293706293</desc><desc class="y left">140.73271433968387</desc><desc class="x_label">2558/3</desc></g><g class="dots"><circle class="dot reactive tooltip-trigger" cx="671.6307692307691" cy="259.82065934607624" r="2.5" /><desc class="value">0.8</desc><desc class="x left top">671.6307692307691</desc><desc class="y left top">259.82065934607624</desc><desc class="x_label">2558/4</desc></g></g></g><g class="plot text-overlay" transform="translate(95, 46)"><g class="series serie-0 color-0" /></g><g class="plot tooltip-overlay" transform="translate(95, 46)"><g class="tooltip" style="opacity: 0" transform="translate(0 0)"><rect class="tooltip-box" height="0" rx="0" ry="0" width="0" /><g class="text" /></g></g><g class="legends" transform="translate(10, 56)"><g class="legend reactive activate-serie" id="activate-serie-0"><rect class="color-0 reactive" height="12" width="12" x="0.0" y="1.0" /><text x="17.0" y="11.2">รวม</text></g></g><g class="legends" transform="translate(790, 56)" /></g></svg>